<?xml version="1.0" standalone="no"?>
<!DOCTYPE svg PUBLIC "-//W3C//DTD SVG 1.1//EN" "http://www.w3.org/Graphics/SVG/1.1/DTD/svg11.dtd" >
<!--
2013-9-30: Created.
-->
<svg>
<metadata>
Created by iconfont
</metadata>
<defs>

<font id="shop" horiz-adv-x="1024" >
  <font-face
    font-family="shop"
    font-weight="500"
    font-stretch="normal"
    units-per-em="1024"
    ascent="896"
    descent="-128"
  />
    <missing-glyph />
    
    <glyph glyph-name="x" unicode="x" horiz-adv-x="1001"
d="M281 543q-27 -1 -53 -1h-83q-18 0 -36.5 -6t-32.5 -18.5t-23 -32t-9 -45.5v-76h912v41q0 16 -0.5 30t-0.5 18q0 13 -5 29t-17 29.5t-31.5 22.5t-49.5 9h-133v-97h-438v97zM955 310v-52q0 -23 0.5 -52t0.5 -58t-10.5 -47.5t-26 -30t-33 -16t-31.5 -4.5q-14 -1 -29.5 -0.5
t-29.5 0.5h-32l-45 128h-439l-44 -128h-29h-34q-20 0 -45 1q-25 0 -41 9.5t-25.5 23t-13.5 29.5t-4 30v167h911zM163 247q-12 0 -21 -8.5t-9 -21.5t9 -21.5t21 -8.5q13 0 22 8.5t9 21.5t-9 21.5t-22 8.5zM316 123q-8 -26 -14 -48q-5 -19 -10.5 -37t-7.5 -25t-3 -15t1 -14.5
t9.5 -10.5t21.5 -4h37h67h81h80h64h36q23 0 34 12t2 38q-5 13 -9.5 30.5t-9.5 34.5q-5 19 -11 39h-368zM336 498v228q0 11 2.5 23t10 21.5t20.5 15.5t34 6h188q31 0 51.5 -14.5t20.5 -52.5v-227h-327z" />
    

    
    <glyph glyph-name="bianji" unicode="&#58881;" d="M902.393873 458.040297c-13.553691 0-24.592095-11.010775-24.592095-24.618701l0-406.734538c0-22.325471-18.144242-40.443108-40.442084-40.443108L154.011164-13.756049c-22.243607 0-40.441061 18.117636-40.441061 40.443108l0 683.292248c0 22.270213 18.197454 40.46869 40.441061 40.46869l402.388557 0c13.610996 0 24.6494 11.039427 24.6494 24.620747 0 13.607926-11.038404 24.619724-24.6494 24.619724L154.011164 799.688467c-49.457412 0-89.680509-40.222073-89.680509-89.709161l0-683.292248c0-49.458435 40.223097-89.710184 89.680509-89.710184l683.34853 0c49.403177 0 89.682555 40.251749 89.682555 89.710184L927.042249 433.421596C927.042249 447.029522 916.001799 458.040297 902.393873 458.040297zM958.245925 665.57498c-2.840698 30.933523-17.323551 60.826344-40.714284 84.217077l-40.385802 40.414455C850.912361 816.383708 816.26526 831.385377 781.944594 831.385377c-28.307719 0-54.104245-10.247388-72.685439-28.882817L330.751494 424.048111c-37.763069-37.789675-36.397978-186.985672-35.0861-231.79932 0.435928-13.034874 10.873652-23.500227 23.935132-23.908526 0 0 10.875698-0.329505 27.872814-0.329505 168.542624 0 195.155748 26.6428 203.955158 35.413558l378.398166 378.426819C951.250604 603.163535 961.306634 632.949932 958.245925 665.57498zM718.1128 741.675192l63.831794-63.8584L435.242314 331.087906l-63.941288 63.914682L718.1128 741.675192zM347.474364 217.253278c-0.983397 0-1.966795 0-2.951215 0-0.38374 58.72038 4.206812 114.900913 11.366885 146.735969l135.369084-135.369084C464.861912 222.579587 418.191986 217.253278 347.474364 217.253278zM522.3533 244.001479l-63.883983 63.860447 346.647021 346.728886 63.887053-63.887053L522.3533 244.001479zM895.016859 616.717226l-2.733251-2.785439-150.999063 150.971433 2.732228 2.732228c12.023848 11.995195 27.215852 14.509459 37.926798 14.509459 21.313422 0 43.393299-9.727549 60.334133-26.806529l40.442084-40.36022c15.302521-15.328104 24.702612-34.456766 26.451442-53.93847C910.864802 643.250532 905.837298 627.51106 895.016859 616.717226z"  horiz-adv-x="1024" />

    
    <glyph glyph-name="chakan" unicode="&#58882;" d="M126.66126 787.356604 624.477212 787.356604 745.553779 666.281061 745.553779 524.469242 789.104667 524.469242 789.104667 688.929898 647.074883 830.905446 646.963343 830.741717 646.963343 830.905446 126.66126 830.905446 83.058183 830.905446 83.058183 787.356604 83.058183 43.448814 83.058183-10.986983 126.66126-10.986983 350.320179-10.986983 350.320179 43.448814 126.66126 43.448814ZM247.316224 630.078535l339.866594 0 0-43.6041-339.866594 0 0 43.6041ZM253.443781 427.701315l141.702326 0 0-43.550888-141.702326 0 0 43.550888ZM253.443781 223.736946l102.96814 0 0-43.603077-102.96814 0 0 43.603077ZM811.168172 93.582631c32.608675 38.241976 57.774845 93.334735 57.774845 147.554614 0 121.073496-98.151437 219.224933-219.173768 219.224933-121.129778 0-219.281215-98.151437-219.281215-219.224933s98.151437-219.172745 219.281215-219.172745c47.161113 0 99.029434 21.666462 134.754077 47.051619l128.35432-132.454708 27.628244 27.628244L811.168172 93.582631zM649.770272 58.728822c-94.757131 0-182.513824 87.648223-182.513824 182.409446 0 94.704942 87.757716 182.461635 182.513824 182.461635 94.705965 0 182.406376-87.756693 182.406376-182.461635C832.176648 146.377044 744.476237 58.728822 649.770272 58.728822z"  horiz-adv-x="1024" />

    
    <glyph glyph-name="kaika" unicode="&#58883;" d="M952.911 685.489c-4.318 10.115-10.467 19.244-18.308 27.090-7.819 7.843-16.945 13.995-27.085 18.313-10.57 4.483-21.698 6.695-33.229 6.695h-724.934c-11.476 0-22.68-2.213-33.197-6.695-10.17-4.318-19.298-10.47-27.136-18.313-7.841-7.846-13.99-16.974-18.255-27.090-4.449-10.522-6.693-21.727-6.693-33.259v-533.124c0-11.534 2.244-22.716 6.693-33.239 4.264-10.193 10.414-19.325 18.255-27.111 7.839-7.817 16.967-13.993 27.136-18.292 10.518-4.479 21.722-6.717 33.197-6.717h724.935c11.531 0 22.659 2.239 33.229 6.717 10.14 4.299 19.266 10.475 27.085 18.292 7.84 7.786 13.99 16.918 18.308 27.111 4.425 10.523 6.716 21.705 6.716 33.239l0 533.124c-0.001 11.533-2.292 22.738-6.717 33.259zM916.865 119.105c0-23.506-19.072-42.641-42.575-42.641h-724.935c-23.499 0-42.6 19.135-42.6 42.641l-0 383.659h810.11v-383.659zM916.865 546.712h-810.11v105.517c0 23.506 19.101 42.665 42.6 42.665h724.935c23.503 0 42.575-19.159 42.575-42.665l0-105.517zM874.902 291.184h-277.53v-171.762h277.53v171.762zM832.249 162.057h-192.233v86.491h192.232v-86.491z"  horiz-adv-x="1024" />

    
    <glyph glyph-name="xiangqing" unicode="&#58885;" d="M814.121434 831.02108 209.796702 831.02108c-53.612035 0-97.194646-43.529399-97.194646-97.141434l0-700.154287c0-53.611012 43.583634-97.194646 97.194646-97.194646l604.325755 0c53.556777 0 97.16804 43.584658 97.223299 97.194646L911.345756 733.879646C911.344732 787.492704 867.67821 831.02108 814.121434 831.02108zM856.557942 33.725358c0-23.443945-19.045775-42.463114-42.436508-42.463114L209.796702-8.737756c-23.38971 0-42.407855 19.019169-42.407855 42.463114L167.388846 733.879646c0 23.391756 19.018146 42.464137 42.407855 42.464137l604.325755 0c23.38971 0 42.436508-19.072381 42.436508-42.464137L856.558965 33.725358zM266.093892 414.631648l52.829206 0 0-54.54529-52.829206 0 0 54.54529ZM266.093892 618.241952l52.829206 0 0-54.544267-52.829206 0 0 54.544267ZM266.093892 211.022367l52.829206 0 0-54.492078-52.829206 0 0 54.492078ZM361.513102 211.022367l399.37799 0 0-54.492078-399.37799 0 0 54.492078ZM361.513102 414.631648l399.37799 0 0-54.54529-399.37799 0 0 54.54529ZM361.513102 618.241952l399.37799 0 0-54.544267-399.37799 0 0 54.544267Z"  horiz-adv-x="1024" />

    
    <glyph glyph-name="huiyuan" unicode="&#58886;" d="M506.635317-62.591291c-16.363689 0-35.284621 0.540306-56.237839 1.607614l-0.11768 0.00614c-22.760376 1.264806-44.239574 2.823302-65.664535 4.764514-22.547529 1.992377-45.094034 4.253884-66.954925 6.716982-22.763446 2.644223-42.671868 5.341658-60.946071 8.255011-16.181541 2.476401-31.959899 5.327332-46.899146 8.473999l-0.479931 0.106424c-18.005073 4.15667-27.684526 8.05956-34.523281 13.924127-11.104919 9.458419-17.285688 26.094308-21.269419 57.363476-3.26844 25.164123-2.059915 56.536644 3.702322 95.843882 3.580548 27.230178 14.706957 48.672536 33.07428 63.738673 15.443737 12.751419 33.606399 22.978341 53.92005 30.346145 17.928325 6.55223 37.156248 12.570293 57.091276 17.86795 16.065907 4.218068 30.596855 10.484795 43.261293 18.645662l0.173962 0.110517c9.290597 5.881964 16.139585 11.328 20.355607 16.188704l0.375553 0.422625c3.846608 4.242627 6.598278 8.413624 8.17724 12.399401l0.130983 0.325411c1.50119 3.640923 2.200108 7.212262 2.200108 11.238972 0 6.4192-0.2415 13.784958-0.737804 22.506597-0.861624 9.717316-4.306072 13.093203-5.446036 14.20963l-0.187265 0.185218c-7.240915 7.240915-14.991436 14.354939-23.695678 21.750373l-0.660032 0.580215c-7.106862 6.470365-12.947893 14.763239-17.365506 24.650423-3.840468 8.237615-7.02295 15.771195-9.726525 23.022343l-0.39295 1.13587c-1.725294 5.38873-3.37998 10.844999-5.095042 16.546861-1.849114 1.130753-3.66139 2.363837-5.432733 3.696182l-1.197268 0.957815c-4.603855 3.91517-9.148357 8.843412-14.303774 15.510252l-0.290619 0.38374c-5.542226 7.453762-10.102079 17.391089-13.558807 29.543873-4.354168 12.859889-5.981225 25.047466-4.838192 36.237319l0.016373 0.154519c1.075495 9.933233 3.031033 18.520819 5.973038 26.234501 2.152013 6.03239 5.123694 11.834536 8.877181 17.339924-0.093121 19.642362 1.116427 39.268352 3.607154 58.470693 2.306532 19.129686 6.487761 39.844473 12.428054 61.569264l0.034792 0.12689c6.468318 23.188118 16.275685 44.37465 29.15297 62.975287 12.036128 17.999956 25.552979 32.827663 40.178071 44.070728 14.592346 11.222599 29.686113 20.12434 44.857651 26.455535 14.852266 6.310729 30.315446 10.708899 45.960775 13.074783 14.470573 2.131547 28.726252 3.204995 42.470277 3.204995 17.626449 0 35.350113-2.082428 52.67878-6.188956 17.08512-4.028757 33.311687-9.459442 48.199769-16.136515l0.150426-0.067538c14.947434-6.820336 28.263717-14.562671 40.709167-23.670096l0.2415-0.179079c12.565177-9.42465 22.276353-18.694781 29.679973-28.337395 16.086373-20.532639 27.949562-43.269479 35.260062-67.581188 6.89913-22.992667 11.822257-45.059242 14.633279-65.600067l0.044002-0.344854c2.444679-19.86442 3.860934-40.204677 4.227278-60.607356 2.373047-2.984984 4.436032-6.218632 6.172583-9.685593 3.172249-5.943362 5.646604-12.915148 7.55814-21.291932l0.165776-0.779759c1.797949-9.191336 2.01182-19.414165 0.63752-30.391171-1.378393-14.70798-4.578272-27.104311-9.513678-36.853349-4.875031-9.699919-10.734482-17.702174-17.416671-23.784706-3.573385-3.270487-7.355525-6.112208-11.31265-8.506744-1.543146-5.14723-3.217275-10.559497-5.095042-16.48137l-0.49835-1.424442c-3.146667-8.205892-6.637164-16.158005-10.376325-23.633257-4.7727-9.508561-10.589173-17.47193-17.303085-23.702841l-1.191128-1.039679c-8.227382-6.738471-17.524119-14.432711-24.15412-20.451798-0.258896-0.24764-3.243881-3.322675-4.934382-14.709003l-0.234337-1.333368c-1.245364-6.132674-1.664919-12.483312-1.24741-18.874883 0.379647-5.598508 1.874697-11.131525 4.568039-16.85897 2.704598-5.735631 7.057743-11.423167 12.928451-16.877389 6.181793-5.727445 15.497972-11.142781 27.663036-16.071024l0.183172-0.074701c12.70844-5.262864 26.640754-10.011005 41.412179-14.114462l0.106424-0.029676c16.432251-4.640694 32.448016-9.957793 48.965202-16.256242 17.2335-6.641257 32.840966-15.130605 46.474474-25.264407 16.08535-11.859096 27.530007-28.178783 33.939997-48.446385l0.040932-0.130983c3.242857-10.451026 5.592368-22.921036 7.181563-38.123272l0.013303-0.12689c1.419326-14.261818 2.13871-28.53387 2.13871-42.419112 0-14.273075-1.056052-28.339442-3.139503-41.808198l-0.052189-0.321318c-2.574638-15.34857-6.545066-27.172873-12.141528-36.150338l-0.756223-1.144056c-6.384407-9.115612-17.673521-15.740496-36.599569-21.472034-13.356193-4.157693-29.638017-8.084119-49.767474-12.002358-18.052145-3.640923-39.167045-6.90527-64.545038-9.980305-22.233374-2.752694-45.352931-5.126764-70.614268-7.247054-21.87624-1.893116-44.744064-3.493567-67.900459-4.752234l-0.132006-0.007163C542.004873-62.050985 522.811742-62.591291 506.635317-62.591291L506.635317-62.591291zM453.059098-9.886929c20.067035-1.02126 38.09155-1.539053 53.575196-1.539053 15.329127 0 33.658587 0.518816 54.479799 1.542122 22.588461 1.227967 44.87914 2.788509 66.254983 4.637624 24.6494 2.069125 47.113017 4.374634 68.738547 7.052626 24.146956 2.925632 43.992957 5.987365 60.739363 9.368368l0.178055 0.034792c18.355043 3.569292 32.906457 7.059789 44.488237 10.671037l0.211824 0.064468c5.279237 1.596358 8.481162 2.89391 10.293437 3.738138 1.052982 2.664689 2.408863 7.139607 3.63376 14.389732 1.667989 10.840906 2.51324 22.222117 2.51324 33.827433 0 12.18553-0.633427 24.737404-1.882883 37.307697-1.214664 11.584849-2.939959 21.048385-5.130857 28.130687-3.124154 9.839089-8.219195 17.259082-15.57779 22.684652-9.994632 7.42818-21.523199 13.670348-34.346249 18.612916-14.984273 5.713119-29.572526 10.55745-44.512796 14.778588-16.700357 4.641717-32.556487 10.051937-47.128367 16.081257-17.895579 7.258311-32.422434 15.990183-43.175335 25.954115-10.698666 9.94142-18.906605 20.897959-24.417109 32.589233-5.384637 11.449773-8.519024 23.302729-9.329483 35.254945-0.703011 10.747785-0.020466 21.421892 2.025123 31.791054 2.988054 19.397792 10.007935 34.279734 20.871353 44.243667l0.089028 0.081864c7.269567 6.603395 16.499789 14.268982 25.468045 21.620413 2.059915 2.046612 4.048199 4.966105 5.918803 8.69094 2.877537 5.754051 5.599532 11.93175 8.081049 18.34481 3.01159 9.511631 5.456269 17.60803 7.677866 25.424042l3.727904 13.115716 12.967336 4.218068c1.968841 0.64059 4.015454 1.923816 6.080485 3.813862 1.192152 1.085728 3.514033 3.63376 6.204305 8.995885l0.050142 0.099261c1.157359 2.28095 3.248997 7.762801 4.254907 18.8493l0.106424 0.971118c0.704035 5.451152 0.711198 10.332323 0.020466 14.148231-1.133823 4.839215-2.210341 7.232728-2.759857 8.240685l-0.532119 1.027399c-0.324388 0.666172-0.731664 1.152243-1.359974 1.627057l-10.16757 7.676843 0 12.739139c0 21.811772-1.318018 43.615357-3.917216 64.802912-2.455935 17.874089-6.801916 37.267788-12.919241 57.648978-5.552459 18.463514-14.255679 35.097356-26.603915 50.837852l-0.185218 0.23843c-4.449335 5.810333-11.085476 12.047384-19.726274 18.540262-9.552563 6.976902-19.871583 12.961196-31.53932 18.289552-11.915377 5.336542-25.019837 9.708106-38.953174 12.993942-13.496385 3.197832-27.251667 4.816702-40.909735 4.816702-11.256368 0-23.004947-0.890276-34.918277-2.644223-11.32493-1.711991-22.652929-4.943592-33.57263-9.589402l-0.177032-0.074701c-11.090593-4.621251-22.339798-11.290137-33.43346-19.822464-10.241248-7.873318-19.974937-18.673292-28.935006-32.102139l-0.265036-0.388856c-9.664104-13.921058-17.072841-29.967522-22.021549-47.691185-5.282307-19.331277-8.975419-37.578874-10.977006-54.237275l-0.030699-0.24457c-2.550079-19.621896-3.584642-39.764656-3.072989-59.870576l0.255827-10.025331-6.626931-7.52744c-2.701528-3.069919-4.547573-6.081509-5.64251-9.208732l-0.288572-0.783853c-1.364067-3.52222-2.358721-8.085142-2.957355-13.563924-0.267083-2.720971-0.033769-7.517207 2.553149-14.991436l0.468674-1.502213c2.387373-8.570189 4.662183-12.263301 5.441942-13.359262 2.946099-3.791349 4.943592-5.9055 6.209422-7.075139 1.106194-0.760317 2.198062-1.325182 3.193739-1.647523l12.71458-4.121877 3.87833-12.791327c0.820692-2.707668 1.622964-5.378497 2.413979-8.009418 1.893116-6.30152 3.684926-12.265348 5.492084-17.932418 2.203178-5.860475 4.836145-12.0525 8.037047-18.909675l0.207731-0.456395c1.470491-3.316535 3.121084-5.862521 4.909823-7.575536 9.56382-8.142447 18.150382-16.035208 26.233478-24.114211 12.06478-11.868305 18.981307-27.595498 20.558222-46.74872l0.044002-0.63138c0.566912-9.860579 0.842181-18.295692 0.842181-25.787316 0-10.731412-1.961678-20.736277-5.995551-30.579459-3.824095-9.585309-9.742898-18.854417-17.594727-27.554566-7.559163-8.65717-17.822924-17.041118-31.366382-25.621541-17.183358-11.05887-36.635385-19.484773-57.8168-25.047466-18.374486-4.882194-36.113499-10.431583-52.652174-16.476253-14.858406-5.389754-27.930119-12.70844-38.913265-21.775956-8.188496-6.716982-13.033851-16.853853-14.875802-31.04097l-0.059352-0.424672c-5.024433-34.20708-6.239098-61.823044-3.607154-82.081437 1.794879-14.087856 3.758604-21.393239 4.945639-24.838711 2.178619-0.724501 5.740748-1.763157 11.367909-3.067872 13.970176-2.937912 28.753881-5.605671 43.944861-7.927553l0.161682-0.025583c17.568121-2.801812 36.790928-5.405103 58.765405-7.957229 21.366633-2.407839 43.500746-4.627391 65.699328-6.588045C410.042375-7.142421 430.919868-8.656915 453.059098-9.886929L453.059098-9.886929z"  horiz-adv-x="1024" />

    
    <glyph glyph-name="dazheshangpin" unicode="&#58887;" d="M512.054747 831.923636c-247.083421 0-447.240067-200.124923-447.240067-447.316815 0-246.883877 200.156646-447.052802 447.240067-447.052802 246.972904 0 447.12955 200.167902 447.12955 447.052802C959.184297 631.798712 759.026628 831.923636 512.054747 831.923636zM512.054747-36.575778c-232.721319 0-421.401586 188.516538-421.401586 421.182598 0 232.842069 188.745758 421.380096 421.401586 421.380096 232.610802 0 421.292092-188.538027 421.292092-421.380096C933.346839 151.939737 744.600057-36.575778 512.054747-36.575778zM507.971755 601.84654c-13.704117 13.670348-33.816177 19.397792-52.686966 15.075347l-106.304118-24.532743c-20.945031-4.783956-37.567617-21.416775-42.406832-42.373063l-24.531719-106.316397c-4.411473-19.134803 1.228991-38.817074 15.119349-52.68492l220.817198-220.816175c10.676154-10.686387 24.873504-16.568351 39.971363-16.568351 15.106046 0 29.306466 5.881964 40.002063 16.568351l130.836861 130.827651c10.676154 10.708899 16.567327 24.905226 16.567327 40.002063s-5.892197 29.294187-16.567327 39.980573L507.971755 601.84654zM714.252889 315.597097 583.413981 184.726467c-13.592576-13.582343-37.283138-13.604856-50.897204 0L311.67809 405.541619c-8.810666 8.843412-12.398378 21.372773-9.589402 33.528628l24.531719 106.316397c3.061732 13.341866 13.638625 23.918759 26.969235 26.968212l106.305141 24.531719c2.664689 0.613984 5.385661 0.920976 8.107655 0.920976 9.622148 0 18.651802-3.729951 25.432229-10.509355l220.819245-220.838687c6.813173-6.779404 10.543124-15.821337 10.543124-25.433252C724.796012 331.418434 721.043548 322.376501 714.252889 315.597097zM418.924673 525.045363c-12.012591 0-23.325241-4.673439-31.81766-13.166881-17.522072-17.532305-17.522072-46.103014 0-63.614853 8.492418-8.492418 19.805068-13.165858 31.79617-13.165858 12.024871 0 23.325241 4.673439 31.818683 13.165858 8.492418 8.492418 13.187347 19.792788 13.187347 31.79617 0 12.024871-4.694929 23.325241-13.187347 31.81766C442.229448 520.371924 430.929078 525.045363 418.924673 525.045363zM436.183755 462.790484c-9.236362-9.215896-25.300222-9.237385-34.537608 0-9.502421 9.524934-9.502421 25.015743 0 34.539654 4.607948 4.607948 10.741645 7.15291 17.279548 7.15291 6.51846 0 12.651135-2.544963 17.259082-7.15291 4.607948-4.629437 7.164167-10.731412 7.164167-17.269315C443.347922 473.543386 440.813193 467.398432 436.183755 462.790484z"  horiz-adv-x="1024" />

    
    <glyph glyph-name="dianhuahudong" unicode="&#58888;" d="M526.737144 847.889259c-246.64954 0-446.484867-199.759603-446.484867-446.546266 0-246.500137 199.836351-446.321138 446.484867-446.321138 246.559489 0 446.39584 199.822025 446.39584 446.321138C973.132984 648.129656 773.298679 847.889259 526.737144 847.889259zM526.737144-19.108964c-232.325299 0-420.676062 188.150194-420.676062 420.443771 0 232.468562 188.41523 420.643316 420.676062 420.643316 232.216829 0 420.589081-188.174754 420.589081-420.643316C947.327248 169.046347 758.912018-19.108964 526.737144-19.108964zM649.313877 652.991384c-17.404392 0-23.716144-8.602935-25.89988-13.745049-20.020986-35.328623-44.784996-96.772021-44.893466-118.794593l0-1.593288 0.571005-1.451048c4.411473-11.582803 14.280238-17.118889 22.992667-22.019503 11.464099-6.442736 17.99177-10.689457 18.801205-22.87294 0.218988-3.690042-2.968611-20.502963-53.604872-82.505086l-21.638833-25.960255c-50.720172-59.544141-66.707284-65.931618-70.440305-66.477041-12.227486-1.692548-18.014282 3.64604-26.792203 13.239536-6.724145 7.280824-14.32424 15.581883-26.856671 17.391089l-1.594311 0.233314-1.571798-0.320295c-22.099321-4.649903-78.673827-40.87085-110.794385-67.797106-4.627391-3.034103-12.727882-12.116969-6.310729-32.171724 10.06524-31.497365 53.890374-78.235852 93.825922-78.235852l2.620687 0.077771c60.789505 3.078105 142.844336 59.915601 219.552391 152.060231l28.342512 34.004465c76.727499 92.143607 116.904547 182.137247 107.515712 240.720503C746.50136 618.109945 684.641477 652.991384 649.313877 652.991384zM631.930975 346.872405l-28.342512-34.007535C516.903172 208.764953 439.954639 169.320593 396.80898 167.14709l-1.703805-0.042979c-30.851659-0.021489-68.668962 40.003086-76.989465 66.13935-1.700735 5.308913-2.530636 11.628852 0.220011 13.486152 35.286668 29.52443 84.786035 59.329247 102.123912 64.176648 5.15337-1.325182 9.083889-5.361101 14.781658-11.564383 8.821923-9.626241 19.937075-22.022573 42.445718-18.779715 9.934257 1.385557 29.569456 10.883885 85.423555 77.067236l5.650697 6.735401-0.085958 0.065492 4.369517 5.250584 0.064468-0.021489 5.522784 6.635117c54.959729 66.901713 60.461023 87.579661 59.85011 97.30721-1.440815 21.955034-16.554024 30.460756-27.577079 36.672224-7.402597 4.137227-12.271488 7.063883-14.673188 11.713786 1.331321 17.554818 21.046339 70.854744 43.036165 109.808942 1.641383 3.712555 7.575536 3.994987 10.044774 3.994987 28.077475 0 81.399915-30.472012 86.377276-61.682851C742.371296 532.524708 718.615243 451.00302 631.930975 346.872405z"  horiz-adv-x="1024" />

    
    <glyph glyph-name="duanxinhudong" unicode="&#58890;" d="M531.922237 843.453227c-247.060909 0-447.239044-200.092178-447.239044-447.296349 0-246.89411 200.179159-447.074292 447.239044-447.074292 246.972904 0 447.130573 200.180182 447.130573 447.074292C979.053834 643.361049 778.895141 843.453227 531.922237 843.453227zM531.922237-24.987858c-232.717226 0-421.408749 188.460256-421.408749 421.144736 0 232.838999 188.759061 421.321768 421.408749 421.321768 232.606709 0 421.300278-188.482769 421.300278-421.321768C953.222515 163.471374 764.463454-24.987858 531.922237-24.987858zM723.603861 559.72828 348.451622 559.72828c-18.680455 0-33.863249-15.183817-33.863249-33.865295l0-250.113431c0-18.671245 15.183817-33.855062 33.863249-33.855062l375.150192 0c18.680455 0 33.864272 15.183817 33.864272 33.855062L757.466086 525.862985C757.469156 544.54344 742.284315 559.72828 723.603861 559.72828zM340.639702 525.862985c0.001023 4.305049 3.497661 7.824199 7.81192 7.824199l375.150192 0c4.294816 0 7.812943-3.51915 7.812943-7.824199l0-49.15963-193.361893-80.557734-197.413162 80.944544L340.639702 525.862985zM731.420897 275.747507c-0.004093-4.305049-3.523243-7.79043-7.818059-7.79043L348.451622 267.957077c-4.314259 0-7.81192 3.484358-7.81192 7.792477L340.639702 448.935941l192.521758-78.939887c0.064468-0.021489 0.132006-0.045025 0.222057-0.066515 0.065492-0.021489 0.154519-0.064468 0.220011-0.089028 0.243547-0.099261 0.509606-0.189312 0.7552-0.277316 0.310062-0.065492 0.575098-0.132006 0.841158-0.198521 0.088004-0.021489 0.13303-0.021489 0.176009-0.044002 0.554632-0.121773 1.151219-0.210801 1.706875-0.255827 0.044002 0 0.10847 0 0.178055 0 0.286526-0.021489 0.552585-0.042979 0.86367-0.042979 0.284479 0 0.575098 0.021489 0.840134 0.042979 0.089028 0 0.13303 0 0.198521 0 0.553609 0.045025 1.12973 0.134053 1.704828 0.255827 0.042979 0.021489 0.088004 0.021489 0.176009 0.044002 0.534166 0.13303 1.085728 0.286526 1.61887 0.497327 0.064468 0.021489 0.132006 0.045025 0.195451 0.064468 0.11154 0.045025 0.199545 0.066515 0.268106 0.088004l188.29448 78.467119L731.420897 275.747507z"  horiz-adv-x="1024" />

    
    <glyph glyph-name="huiyuanguanli" unicode="&#58891;" d="M832.976874 234.900194c3.119037 10.56666 1.750877 20.177552-4.375657 28.887934-6.016017 8.735965-14.167674 14.935154-24.122397 18.565844-10.120498 3.687996-20.128433 3.988848-30.084179 0.793062-10.06524-3.14155-17.450441-11.359722-22.264073-24.49488-2.625804-9.009188-5.140067-17.336854-7.494695-25.010627-2.352581-7.646144-4.704139-15.700587-7.164167-24.084535-2.352581-8.435113-5.251607-17.556864-8.754385-27.360138-3.390213-9.721409-7.765871-20.914332-13.071713-33.612539-5.305843-13.681604-12.909008-20.123316-22.591531-19.333324-9.78997 0.788969-17.283642 6.417153-22.590508 16.983813-5.853311 10.568706-11.158131 21.929452-16.246009 34.07712-4.976338 12.125155-9.900487 24.028253-14.71412 35.606962-4.705162 11.632945-9.026584 22.199605-12.636808 31.592532-3.719718 9.585309-6.947226 17.120936-9.518794 22.99369-4.210905 8.438183-11.214413 13.186324-21.004383 14.199397-9.845229 1.065262-19.363-0.38374-28.554336-4.340865-9.296737-3.932566-16.900925-10.131755-22.972201-18.568914-6.01704-8.516977-7.001461-17.692964-2.843768-27.687596 3.719718-10.567683 7.985882-22.419616 12.745279-35.633568 4.706185-13.18837 9.792017-26.623357 14.987343-40.304961 5.251607-13.760398 10.393721-27.194362 15.098883-40.383756 4.704139-13.18837 9.025561-24.547069 12.633738-34.050514 7.93267-20.069081 19.968797-35.113729 36.048007-45.137013 16.084327-10.076496 33.094746-15.262612 50.708915-15.835663 17.667382-0.49221 34.626635 3.412726 50.762127 11.932774 16.081257 8.436136 27.897374 21.132296 35.226293 37.95545 5.798053 13.707187 11.815093 28.123524 17.833157 43.115983 6.125511 15.044648 11.924587 29.708626 17.394159 43.962258 5.52483 14.19735 10.722202 27.90556 15.536858 41.092907C825.811684 214.091262 829.751413 225.422332 832.976874 234.900194M687.037037 435.867298c34.407648 0 66.789149-6.607488 97.146551-19.796882 30.305213-13.18837 56.83545-31.101345 79.207993-53.791114 22.535249-22.718421 40.312124-49.149397 53.55166-79.512938 13.237489-30.311353 19.803022-62.638619 19.803022-96.936773 0-34.322713-6.510274-66.652026-19.803022-96.962356-13.239536-30.254048-31.016411-56.822147-53.55166-79.513962-22.482037-22.717398-48.90278-40.49325-79.207993-53.463656-30.356378-12.917194-62.795185-19.35993-97.146551-19.35993-34.790364 0-67.445088 6.442736-97.80556 19.35993-30.303166 12.969383-56.887638 30.745235-79.20697 53.463656-22.479991 22.691815-40.36636 49.149397-53.549613 79.513962-13.239536 30.31033-19.856233 62.639642-19.856233 96.962356 0 34.298154 6.618744 66.62542 19.856233 96.936773 13.183254 30.255071 31.069623 56.794517 53.549613 79.512938 22.427802 22.690792 48.903803 40.603767 79.20697 53.791114C619.590925 429.314045 652.246673 435.867298 687.037037 435.867298M573.752948 461.206406c-26.968212-11.085476-51.693336-25.829272-74.173326-44.288692-22.427802-18.403139-41.901319-39.539528-58.257845-63.320141-16.35448-23.700795-28.990265-49.641607-38.015825-77.958536-9.026584-28.177759-13.511735-57.859779-13.511735-88.961124 0-27.386744 3.664459-53.683666 10.722202-78.722946 7.16519-25.065885 17.011442-48.657186 29.702486-70.855768l-21.442358 0c-15.262612 0-33.094746 0.544399-53.497425 1.608637-20.349467 1.010003-41.35385 2.511193-63.070454 4.370541-21.661346 1.77339-43.157939 3.90289-64.600297 6.251378s-40.86164 4.859681-58.255799 7.510044c-17.395182 2.62171-32.274054 5.243421-44.416606 7.944949-12.19781 2.622734-19.856233 5.243421-22.973224 7.919367-5.853311 4.206812-10.229992 17.339924-13.183254 39.266305-2.843768 21.872147-1.749854 49.940412 3.611248 84.210937 2.13257 13.216 6.452969 24.055882 13.126972 32.493042 6.619768 8.520047 14.71412 15.728216 24.231891 21.762653 9.516748 6.090718 20.076244 10.894118 31.726585 14.636349 11.651364 3.713578 23.520693 7.291057 35.719526 10.70276 12.143575 3.415796 23.849174 7.157004 35.227316 11.059893 11.378142 3.932566 21.770839 8.848529 31.28861 14.663978 11.103896 6.935969 19.692504 13.624299 25.819039 20.179598 6.01704 6.661723 10.392698 13.024641 13.127995 19.414165 2.625804 6.253424 3.883447 12.915148 3.883447 19.797905 0 6.880711-0.275269 14.47262-0.766456 22.964014-1.039679 12.149714-5.250584 21.706371-12.636808 28.861328-7.492648 7.154957-15.589047 14.44499-24.614607 21.763676-4.211928 3.685949-8.040117 8.818853-11.487635 15.481599-3.391237 6.553253-6.453992 13.271258-9.080819 20.12434-2.625804 7.946996-5.250584 16.109909-7.931646 24.547069-3.718695 1.065262-7.439436 2.867304-11.104919 5.487991-3.172249 2.620687-6.67298 6.335289-10.339486 11.141758-3.664459 4.695952-6.890944 11.577686-9.517771 20.561291-2.626827 9.010211-3.665483 17.119913-3.173273 24.573675 0.546446 7.426133 2.079358 13.980409 4.704139 19.769252 2.133593 5.761214 5.581112 11.358699 10.393721 16.627702 0 20.071128 0.984421 40.08495 3.118014 60.155055 2.078335 16.847713 5.798053 35.06154 11.103896 54.584176 5.251607 19.524682 13.456477 36.917818 24.561395 52.179406 10.611685 14.773472 21.988804 26.842345 34.132378 36.017308 12.142551 9.229199 24.833595 16.491603 38.017872 21.707394 13.237489 5.243421 26.365484 8.819876 39.274492 10.677177 12.96529 1.829671 25.545816 2.785439 37.688367 2.785439 15.31787 0 30.524201-1.720178 45.565778-5.132904 15.043624-3.413749 29.209252-8.05649 42.447764-13.927197 13.183254-5.761214 24.99937-12.369725 35.228339-19.795858 10.338463-7.454786 18.379603-14.772448 24.122397-22.199605 13.730723-16.847713 23.849174-35.471886 30.084179-55.757908 6.399757-20.369933 10.885931-39.756469 13.456477-58.160631 2.625804-21.134343 3.994987-42.460044 3.994987-64.086597 3.608178-2.62171 6.617721-6.034437 8.751315-10.293437 2.0241-3.687996 3.773953-8.492418 5.140067-14.253632 1.258667-5.762237 1.422396-12.916171 0.438998-21.381983-1.092891-11.631922-3.391237-20.669762-6.78145-27.333532-3.338025-6.661723-7.222495-11.686157-11.4334-15.427364-4.704139-4.260024-9.790994-7.208169-15.042601-8.79327-1.039679-3.112897-2.077312-6.579859-3.172249-10.29446l-3.88447-11.05887C576.651974 469.426625 575.338049 465.385589 573.752948 461.206406"  horiz-adv-x="1024" />

    
    <glyph glyph-name="huiyuanqiaguanli" unicode="&#58892;" d="M780.266371 340.448088 780.266371 351.638965c0 24.645306-19.960611 44.651966-44.671409 44.651966l-55.927777 0 0-100.550067 55.927777 0C760.305761 295.738817 780.266371 315.745477 780.266371 340.448088M903.260613 742.705662 120.741433 742.705662c-30.93864 0-55.92573-25.001417-55.92573-55.843866l0-78.252225 894.368594 0 0 78.252225C959.184297 717.703221 934.118412 742.705662 903.260613 742.705662M266.042727 429.833885l50.327222-201.100134 50.27401 201.100134 33.56035 0-67.066465-268.190135-33.534767 0-67.121723 268.190135L266.042727 429.833885zM500.802472 429.833885l33.561373 0 0-268.190135-33.561373 0L500.802472 429.833885 500.802472 429.833885zM646.159024 429.833885l92.109838 0c41.72531 0 75.558883-33.8172 75.558883-75.521021l0-11.162224c0-44.735877-36.235272-80.954777-80.939427-80.954777l-53.222155 0 0-100.55109-33.507138 0L646.159024 429.833885zM64.815703 83.446783c0-30.870078 24.987091-55.841819 55.92573-55.841819l782.51918 0c30.855752 0 55.921637 24.971741 55.921637 55.841819l0 480.483192L64.81468 563.929975 64.815703 83.446783 64.815703 83.446783z"  horiz-adv-x="1024" />

    
    <glyph glyph-name="huodongshangpin" unicode="&#58893;" d="M512.062933 831.923636c-247.062955 0-447.249277-200.11162-447.249277-447.291233 0-246.902296 200.185298-447.078385 447.249277-447.078385 246.935042 0 447.121364 200.174042 447.121364 447.078385C959.183274 631.812015 758.996952 831.923636 512.062933 831.923636zM512.062933-36.535869c-232.738715 0-421.413865 188.514491-421.413865 421.145759 0 232.845139 188.739619 421.360653 421.413865 421.360653 232.610802 0 421.284929-188.514491 421.284929-421.360653C933.348885 151.978622 744.630756-36.535869 512.062933-36.535869zM592.160179 460.242452c-6.097882 6.096858-15.97074 6.096858-22.059412 0L433.321568 323.462229c-6.097882-6.076392-6.097882-15.96153 0-22.059412 6.086625-6.097882 15.971763-6.097882 22.059412 0L592.160179 438.184063C598.247828 444.281945 598.247828 454.14457 592.160179 460.242452zM468.484416 385.337461c21.951965 0 39.742143 17.779945 39.742143 39.730886s-17.791202 39.730886-39.742143 39.730886c-21.930475 0-39.720653-17.779945-39.720653-39.730886S446.55394 385.337461 468.484416 385.337461zM468.484416 442.869782c9.809413 0 17.747199-7.959276 17.747199-17.736966 0-9.821693-7.937786-17.758456-17.747199-17.758456-9.79918 0-17.747199 7.937786-17.747199 17.758456C450.737216 434.910507 458.685235 442.869782 468.484416 442.869782zM556.997332 376.287341c-21.931498 0-39.720653-17.778922-39.720653-39.71042 0-21.974477 17.792225-39.753399 39.720653-39.753399 21.950941 0 39.74112 17.778922 39.74112 39.753399C596.738451 358.508419 578.949296 376.287341 556.997332 376.287341zM556.997332 318.819488c-9.79918 0-17.748223 7.937786-17.748223 17.758456 0 9.777691 7.949043 17.736966 17.748223 17.736966 9.809413 0 17.748223-7.959276 17.748223-17.736966C574.743508 326.755228 566.806745 318.819488 556.997332 318.819488zM757.395478 385.379417l-44.064588 35.644825c-5.316076 4.342912-7.693216 13.094226-5.210675 19.490913l20.304442 52.91107c2.484587 6.396687-1.069355 12.516058-7.840572 13.586436l-55.969733 8.857738c-6.771217 1.069355-13.19144 7.510044-14.270005 14.292518l-8.846482 55.969733c-0.857531 5.305843-4.804423 8.622378-9.553587 8.622378-1.295506 0-2.673899-0.25685-4.055362-0.77055l-52.890604-20.34742c-1.732457-0.641613-3.637854-0.961908-5.562692-0.961908-5.254677 0-10.784624 2.310625-13.928221 6.204305l-35.677571 44.031842c-2.136663 2.674922-4.994758 4.022617-7.838525 4.022617-2.845815 0-5.692652-1.347694-7.842619-4.022617l-35.644825-44.031842c-3.155876-3.89368-8.697079-6.204305-13.960966-6.204305-1.925862 0-3.830235 0.320295-5.563716 0.961908l-52.889581 20.34742c-1.379417 0.5137-2.759857 0.77055-4.054339 0.77055-4.750187 0-8.697079-3.316535-9.520841-8.622378l-8.857738-55.969733c-1.069355-6.782473-7.510044-13.222139-14.281261-14.292518l-55.980989-8.857738c-6.77224-1.069355-10.29139-7.188726-7.841595-13.586436l20.337187-52.91107c2.450818-6.396687 0.106424-15.148002-5.242398-19.490913l-44.031842-35.644825c-5.348821-4.321422-5.348821-11.360745 0-15.70468l44.031842-35.644825c5.349845-4.322445 7.692193-13.093203 5.242398-19.512403l-20.337187-52.887534c-2.449795-6.39771 1.069355-12.517081 7.841595-13.586436l55.980989-8.857738c6.771217-1.069355 13.211906-7.486508 14.281261-14.270005l8.857738-55.969733c0.823761-5.306866 4.771677-8.643867 9.520841-8.643867 1.315972 0 2.674922 0.277316 4.054339 0.791016l52.889581 20.325931c1.732457 0.663102 3.637854 0.983397 5.563716 0.983397 5.263887 0 10.80509-2.310625 13.960966-6.204305l35.644825-44.054355c2.15099-2.65241 4.996804-4.001127 7.842619-4.001127 2.843768 0 5.701862 1.348718 7.840572 4.001127l35.677571 44.054355c3.143597 3.89368 8.674567 6.204305 13.926174 6.204305 1.926886 0 3.829212-0.320295 5.564739-0.983397l52.888558-20.325931c1.381463-0.5137 2.759857-0.791016 4.076852-0.791016 4.726651 0 8.676613 3.340071 9.531074 8.643867l8.846482 55.969733c1.081635 6.783497 7.498788 13.20065 14.270005 14.270005l55.969733 8.857738c6.771217 1.069355 10.32516 7.167237 7.840572 13.586436l-20.304442 52.887534c-2.482541 6.4192-0.106424 15.193027 5.210675 19.512403l44.064588 35.644825C762.724857 374.018671 762.724857 381.057995 757.395478 385.379417zM707.334315 359.959467c-18.709107-15.126512-26.006304-42.404786-17.394159-64.872496l10.035564-26.077935-27.601638-4.367471c-23.747867-3.741207-43.732014-23.728424-47.476291-47.497781l-4.365424-27.599591-26.092261 10.013051c-6.246261 2.416026-12.933567 3.637854-19.832697 3.637854-17.545608 0-34.394345-7.852852-45.037752-21.011546l-17.578354-21.693068-17.566074 21.693068c-10.653641 13.158694-27.503401 21.011546-45.046962 21.011546-6.900154 0-13.585413-1.218758-19.822464-3.637854l-26.102495-10.013051-4.353145 27.599591c-3.744277 23.771403-23.728424 43.756573-47.477314 47.497781l-27.609825 4.367471 10.034541 26.077935c8.612145 22.465664 1.315972 49.743938-17.394159 64.872496l-21.705348 17.566074 21.705348 17.587564c18.710131 15.126512 26.006304 42.405809 17.394159 64.872496l-10.034541 26.059516L351.624894 490.429984c23.74889 3.744277 43.732014 23.727401 47.477314 47.476291l4.373611 27.600615 26.081005-10.034541c6.237051-2.375094 12.922311-3.615341 19.822464-3.615341 17.576307 0 34.393321 7.873318 45.046962 21.010523l17.566074 21.716604 17.576307-21.716604c10.642384-13.136182 27.493168-21.010523 45.037752-21.010523 6.89913 0 13.58439 1.240247 19.832697 3.615341l26.092261 10.034541 4.365424-27.600615c3.743254-23.74889 23.728424-43.732014 47.477314-47.476291l27.599591-4.38589-10.013051-26.059516c-8.632611-22.465664-1.337461-49.743938 17.374716-64.872496l21.717627-17.587564L707.334315 359.959467z"  horiz-adv-x="1024" />

    
    <glyph glyph-name="jinyong" unicode="&#58894;" d="M511.460206 831.691345c-246.986207 0-447.184809-200.252837-447.184809-447.239044 0-246.986207 200.198601-447.184809 447.184809-447.184809 247.012813 0 447.184809 200.198601 447.184809 447.184809C958.645015 631.438509 758.473019 831.691345 511.460206 831.691345zM118.460484 384.452301c0 217.067804 175.986153 393.026328 392.999722 393.026328 99.124602 0 189.68106-36.70804 258.82586-97.266277L223.854882 133.860986c-2.956332-2.978844-5.084808-6.467295-6.386454-10.178827C155.873582 193.063343 118.460484 284.394445 118.460484 384.452301zM511.460206-8.520815c-99.340519 0-190.079126 36.875862-259.280208 97.67867 3.659343 1.301645 7.095605 3.40761 10.027377 6.326079l546.325783 546.298154c59.776432-68.947302 95.953376-158.912289 95.953376-257.328763C904.487557 167.438733 728.501404-8.520815 511.460206-8.520815z"  horiz-adv-x="1024" />

    
    <glyph glyph-name="qiadongjie" unicode="&#58895;" d="M531.454586 310.115246l91.279936 0L622.734522 346.665697l-91.279936 0L531.454586 310.115246zM891.455753 222.648149l-0.109494-0.107447L735.43942 66.796568c-2.969635-2.970658-7.766894-2.970658-10.68434 0l-15.617699 15.618723c-2.969635 2.916423-2.969635 7.712659 0 10.656711l155.905816 155.742087c2.916423 2.917446 7.714705 2.917446 10.656711 0l15.645328-15.617699 0.109494-0.10847C894.290311 230.171496 894.290311 225.48373 891.455753 222.648149M910.94462 273.563772c-62.745043 62.742996-164.901701 62.689784-227.64572 0-62.799278-62.689784-62.799278-164.736948-0.054235-227.481991 62.797231-62.742996 164.953889-62.742996 227.753167 0C973.741851 108.771565 973.741851 210.820776 910.94462 273.563772M314.084906 393.792017c-44.482097 0-80.542384 36.386722-80.542384 81.278141 0 44.86379 36.060287 81.223906 80.542384 81.223906 44.509726 0 80.570014-36.360116 80.570014-81.223906C394.65492 430.178739 358.540398 393.792017 314.084906 393.792017M459.006554 231.288946c8.886391 0 16.081257 7.331989 16.081257 16.243963 0 2.644223-0.627287 5.097088-1.689479 7.251148-8.149611 56.883545-45.436842 104.173594-96.161107 126.005832 29.899984 20.524452 49.552579 55.030337 49.552579 94.28027 0 62.798255-50.452065 113.713878-112.704898 113.713878-62.226227 0-112.704898-50.915623-112.704898-113.713878 0-39.248909 19.651572-73.755818 49.579185-94.225011-50.751894-21.833261-88.038102-69.177546-96.187713-126.060067-1.063215-2.153036-1.662873-4.606925-1.662873-7.251148 0-8.911974 7.195889-16.243963 16.081257-16.243963 8.857738 0 16.081257 7.331989 16.081257 16.243963l0 1.690502c-0.845251 51.951209 57.646931 112.077611 128.813784 112.077611s128.84039-60.291155 128.84039-112.077611l0-1.690502C442.925297 238.621958 450.121186 231.288946 459.006554 231.288946M148.366607 89.96422c-26.521027 0-47.943942 21.369703-47.943942 47.781236L100.422665 683.227012c0 26.329668 21.423939 47.725978 47.943942 47.725978l687.649486 0c26.52205 0 47.999201-21.395286 47.999201-47.725978l0-332.418972c13.736862-8.776897 26.302039-19.188015 37.476543-30.93557L921.491837 695.901683c0 39.576367-32.215726 71.602781-71.954799 71.602781L135.583466 767.504464c-39.739073 0-71.90261-32.026414-71.90261-71.602781l0-570.885132c0-39.521109 32.162514-71.629387 71.90261-71.629387l480.229412 0c-9.431813 11.229762-17.635659 23.49511-24.39562 36.577057L148.366607 89.96422zM756.020154 566.052313 531.454586 566.052313l0-36.551474 224.565569 0L756.020154 566.052313zM531.454586 419.794228l224.565569 0 0 36.57808L531.454586 456.372308 531.454586 419.794228z"  horiz-adv-x="1024" />

    
    <glyph glyph-name="lingshoushangpin" unicode="&#58896;" d="M512.0527 830.90033c-247.071142 0-447.238021-200.085014-447.238021-447.293279 0-246.901273 200.165856-447.076338 447.238021-447.076338 246.963695 0 447.131597 200.173019 447.131597 447.076338C959.184297 630.814292 759.016395 830.90033 512.0527 830.90033zM512.0527-37.542802c-232.739738 0-421.410795 188.469466-421.410795 421.150876 0 232.834906 188.736549 421.325861 421.410795 421.325861 232.602615 0 421.303348-188.490955 421.303348-421.325861C933.357072 150.92564 744.611314-37.542802 512.0527-37.542802zM684.841022 531.472749l-61.027935 0c0.021489 5.665023 0.021489 9.494235 0.021489 10.172687 0 61.757552-50.066279 111.812575-111.804389 111.812575-61.748343 0-111.814622-50.053999-111.814622-111.812575 0-0.678452 0-4.507664 0.021489-10.172687l-61.026912 0c-22.445198 0-40.636512-18.180058-40.636512-40.647769l-20.335141-284.59578c0-22.445198 18.212804-40.668235 40.658002-40.668235L705.163883 165.560966c22.449291 0 40.659025 18.225083 40.660048 40.670282l-20.346397 284.593733C725.480604 513.292692 707.28929 531.472749 684.841022 531.472749zM512.031211 633.13208c50.539047 0 91.492784-40.952714 91.492784-91.487667 0-0.678452-0.021489-4.50664-0.044002-10.172687l-182.895517 0c-0.021489 5.665023-0.042979 9.494235-0.042979 10.172687C420.541497 592.178343 461.505467 633.13208 512.031211 633.13208zM715.32736 185.883827 308.724829 185.883827c-5.600555 0-10.151197 4.573155-10.151197 10.172687l20.323884 304.918641c0 5.622044 4.549619 10.17371 10.171664 10.17371l71.232344 0c0.098237-25.815969 0.252757-58.915831 0.426719-60.971653l-10.686387 0c-5.600555 0-10.139941-4.573155-10.139941-10.17371 0-5.622044 4.541433-10.172687 10.139941-10.172687l40.658002 0c5.634324 0 10.172687 4.550643 10.172687 10.172687 0 5.600555-4.539386 10.17371-10.172687 10.17371l-9.559727 0c-0.230244 2.056845-0.405229 35.155684-0.5137 60.971653l182.808536 0c-0.12075-25.815969-0.294712-58.915831-0.527003-60.971653l-9.558703 0c-5.622044 0-10.172687-4.573155-10.172687-10.17371 0-5.622044 4.550643-10.172687 10.172687-10.172687l40.654932 0c5.602601 0 10.172687 4.550643 10.172687 10.172687 0 5.600555-4.572132 10.17371-10.172687 10.17371l-10.685363 0c0.206708 2.056845 0.338714 35.155684 0.426719 60.971653l71.242578 0c5.622044 0 10.172687-4.551666 10.172687-10.17371l20.314675-304.918641C725.478558 190.456982 720.927915 185.883827 715.32736 185.883827z"  horiz-adv-x="1024" />

    
    <glyph glyph-name="quanxianguanli" unicode="&#58897;" d="M604.948437 454.717621c37.22174 15.71389 76.519768 23.721261 117.213585 23.721261 4.0175 0 8.061606-0.163729 12.079106-0.163729 19.021216 48.235584 23.912619 105.161085 14.264888 160.584372C726.343251 765.855918 606.533538 850.684932 480.602408 828.35639 354.835006 805.974637 248.607636 708.19159 270.990413 581.195198c4.700045-27.411303 17.954931-70.235644 33.69645-101.143585L76.217381 150.410917c-8.390088-12.051477-13.33675-33.861202-10.685363-48.755424l9.94756-56.405661c-9.401114 54.329373 2.623757-19.541055 9.975189-19.377326l75.263148-1.065262c14.511505 2.623757 32.6844 14.839986 40.692794 27.247574l90.349751 141.344169 0.873903 0.873903 78.92556-6.311753L477.049488 353.409285c0.409322 0 0.737804-0.163729 1.066285-0.163729 9.482979 12.926404 19.759019 25.115004 31.290657 36.647665C536.84434 417.82334 569.119417 439.494918 604.948437 454.717621zM125.628744 115.649206l-11.205203-4.701069 1.257643 12.189623 218.877009 317.750901 13.117762-12.216229L125.628744 115.649206zM458.192002 700.293713c34.599006 49.820686 102.756315 62.200644 152.030555 27.110451 49.41034-35.116799 61.434188-103.9587 26.863834-153.751756-34.599006-49.765427-69.852928-14.675234-119.289873 20.25123C468.495672 629.048065 423.621649 650.364557 458.192002 700.293713zM719.182154 417.332153c-132.571365 0-240.001119-107.403149-240.001119-240.001119 0-132.600017 107.429755-240.057401 240.001119-240.057401 132.600017 0 240.002143 107.457384 240.002143 240.057401C959.184297 309.929004 851.782172 417.332153 719.182154 417.332153zM857.87596 78.755947c0-35.746132-68.622914-43.972491-133.091204-43.972491-64.469314 0-133.992737 8.226359-133.992737 43.972491l0 9.975189c0 26.425859 47.524386 53.125965 87.889723 67.609841 2.951215 1.067308 16.943904 8.718569 9.046027 29.160133-20.087501 20.4958-35.090193 53.673433-35.090193 86.305645 0 49.983391 33.040511 76.16468 71.819722 76.16468 38.562271 0 71.930239-26.181289 71.930239-76.16468 0-32.468482-15.167444-65.481364-35.116799-86.141916l0.191358 0c-7.679913-23.230074 4.50971-28.750811 6.476505-29.323862 42.442648-13.992689 90.104157-40.528042 90.104157-67.609841L857.87596 78.755947z"  horiz-adv-x="1024" />

    
    <glyph glyph-name="riqi" unicode="&#58898;" d="M952.278004 743.166149 789.175275 743.166149 789.175275 808.77338l-33.607422 0 0-65.606207L555.013141 743.167173 555.013141 808.77338l-34.07098 0 0-65.606207L302.01808 743.167173 302.01808 808.77338l-34.561144 0 0-65.606207L101.410156 743.167173c-11.856026 0-21.723767-10.384511-21.723767-23.38664l0-703.791118c0-13.001105 9.867742-23.904433 21.723767-23.904433l850.866824 0c11.831466 0 21.778003 10.903328 21.778003 23.904433L974.054983 719.780533C974.056006 732.781638 964.107423 743.166149 952.278004 743.166149zM930.526607 39.265538 122.724601 39.265538 122.724601 696.448128l144.732335 0 0-18.97005 34.561144 0 0 18.97005 218.924081 0 0-18.97005 34.07098 0 0 18.97005 200.554712 0 0-18.97005 33.607422 0 0 18.97005 141.351332 0L930.526607 39.265538zM223.421001 594.262818l131.878586 0 0-96.067986-131.878586 0 0 96.067986ZM462.076472 594.262818l131.441635 0 0-96.067986-131.441635 0 0 96.067986ZM700.188568 594.262818l131.442658 0 0-96.067986-131.442658 0 0 96.067986ZM223.421001 416.816406l131.878586 0 0-96.069009-131.878586 0 0 96.069009ZM462.076472 416.816406l131.441635 0 0-96.069009-131.441635 0 0 96.069009ZM700.188568 416.816406l131.442658 0 0-96.069009-131.442658 0 0 96.069009ZM223.421001 237.216959l131.878586 0 0-96.011704-131.878586 0 0 96.011704ZM462.076472 237.216959l131.441635 0 0-96.011704-131.441635 0 0 96.011704ZM700.188568 237.216959l131.442658 0 0-96.011704-131.442658 0 0 96.011704Z"  horiz-adv-x="1024" />

    
    <glyph glyph-name="shanchu" unicode="&#58899;" d="M698.921715 102.205009 698.921715 559.790702c0 11.535731-9.295714 20.830421-20.776186 20.830421-11.482519 0-20.829398-9.29469-20.829398-20.830421l0-457.586716c0-11.426237 9.347902-20.830421 20.829398-20.830421C689.626002 81.373565 698.921715 90.778772 698.921715 102.205009M927.837358 747.018897l-239.494583 0-76.762291 76.733639c-4.426823 4.428869-10.304693 6.560416-16.128329 6.396687-0.163729 0-0.327458 0.054235-0.49221 0.054235L428.563194 830.203458c-0.164752 0-0.327458 0-0.437975-0.054235-5.822612 0.163729-11.645225-1.967818-16.074094-6.396687l-76.761268-76.733639L95.74104 747.018897c-11.481496 0-20.776186-9.29469-20.776186-20.830421 0-11.481496 9.29469-20.776186 20.776186-20.776186l249.582335 0c0.273223 0 0.547469 0 0.766456 0 5.931083-0.163729 11.918447 1.967818 16.45681 6.451946l76.761268 76.733639 144.993279 0 76.761268-76.733639c4.482081-4.538363 10.469446-6.614651 16.400528-6.451946 0.302899 0 0.520863 0 0.792039 0l249.583358 0c11.482519 0 20.829398 9.29469 20.829398 20.776186C948.667779 737.724207 939.319877 747.018897 927.837358 747.018897M865.347119 601.397309c-11.453866 0-20.804838-9.29469-20.804838-20.775162l0-561.574069c0-22.962991-18.642592-41.606607-41.60456-41.606607L220.532207-22.558529c-22.962991 0-41.606607 18.643616-41.606607 41.606607L178.9256 580.621123c0 11.481496-9.29469 20.775162-20.776186 20.775162-9.677407 0-17.796318-6.614651-20.092617-15.581883-0.273223 0.1361-0.51984 0.246617-0.737804 0.355087l0-567.123458c0-45.980217 37.231973-83.21219 83.21219-83.21219l582.405513 0c45.952588 0 83.185584 37.232996 83.185584 83.21219L886.122281 580.621123C886.122281 592.102618 876.826568 601.397309 865.347119 601.397309M532.523941 102.205009 532.523941 559.790702c0 11.535731-9.293667 20.830421-20.776186 20.830421-11.481496 0-20.829398-9.29469-20.829398-20.830421l0-457.586716c0-11.426237 9.348925-20.830421 20.829398-20.830421C523.229251 81.373565 532.523941 90.778772 532.523941 102.205009M366.126166 102.205009 366.126166 559.790702c0 11.535731-9.348925 20.830421-20.803815 20.830421-11.480472 0-20.775162-9.29469-20.775162-20.830421l0-457.586716c0-11.426237 9.29469-20.830421 20.775162-20.830421C356.777241 81.373565 366.126166 90.778772 366.126166 102.205009"  horiz-adv-x="1024" />

    
    <glyph glyph-name="tiyanshangpin" unicode="&#58900;" d="M512.05884 829.877023c-247.079328 0-447.245184-200.10855-447.245184-447.294302 0-246.899226 200.164832-447.075315 447.245184-447.075315 246.948345 0 447.124434 200.175065 447.124434 447.075315C959.184297 629.76745 759.008208 829.877023 512.05884 829.877023zM512.05884-38.593737c-232.731552 0-421.422052 188.503235-421.422052 421.153946 0 232.849232 188.757015 421.373956 421.422052 421.373956 232.620012 0 421.291069-188.524724 421.291069-421.373956C933.350932 149.909497 744.637919-38.593737 512.05884-38.593737zM540.012496 574.648085c-17.888416-18.292622-26.25906-13.004175-39.775912 2.010797-28.314883 31.428803-63.425541 48.781006-106.711394 46.333258-64.47443 0.218988-117.649514-31.865755-139.757021-86.460164-24.828478-61.347207-16.293081-117.517507 28.937053-167.435407 68.90023-76.014254 144.816247-145.053654 216.995149-217.812771 13.987572-14.118556 26.248827-16.45681 41.044812-1.855254 76.584236 75.401294 156.367327 147.719366 227.179093 228.759077 36.040844 41.175795 44.586474 91.159186 26.883277 141.297097C754.659157 633.2866 624.626615 661.131785 540.012496 574.648085zM773.430686 439.144948c-4.677533-19.232017-15.266705-34.881438-27.725458-49.458435-62.954821-73.325006-133.702118-138.892327-204.317409-204.678636-13.911848-12.938684-24.839735-12.980639-38.717813-0.151449-71.520917 66.286706-142.847405 132.704394-207.169363 206.117404-37.438681 42.72815-39.362496 91.991134-16.381086 141.099598 22.402219 47.710628 64.681138 66.419735 123.966383 67.074651 33.078373 2.819209 62.145385-18.86158 88.557942-47.033199 29.811979-31.821753 30.16195-31.406291 59.328223 2.010797 40.10337 46.027289 105.321744 58.748009 158.387333 30.772864C761.617639 557.405375 787.6045 497.607454 773.430686 439.144948z"  horiz-adv-x="1024" />

    
    <glyph glyph-name="xiaoshouweihu" unicode="&#58902;" d="M457.075575 355.809961l0 0.055259c55.042617 0 106.965174 5.553483 153.636123 15.238053 29.627784 81.686441 107.676371 140.257417 199.457728 140.257417 3.308349 0 6.509251-0.356111 9.738805-0.51984 0.245593 2.298346 0.793062 4.541433 0.793062 6.78452L820.701293 641.385045c0-89.428775-162.743548-161.814386-363.624694-161.814386-200.851471 0-363.54283 72.385611-363.54283 161.814386l0-123.760698C93.533768 428.195571 256.224104 355.809961 457.075575 355.809961zM457.075575 523.998521c200.88217 0 363.625718 72.330352 363.625718 161.759127 0 89.484034-162.743548 161.869644-363.625718 161.869644-200.850447 0-363.541807-72.385611-363.541807-161.869644C93.533768 596.328873 256.224104 523.998521 457.075575 523.998521zM953.598069 322.079742c0 0-57.613162-57.916061-63.495126-63.850214-5.936199-5.880941-25.715685-5.28026-25.715685-5.28026s-52.550867 5.938246-60.156078 13.513782c-7.52437 7.550976-12.774955 62.455447-12.774955 62.455447s-1.394766 15.347546 6.155187 22.870894c7.525394 7.549953 63.715137 63.74072 63.715137 63.74072s7.222495 8.15268-3.200902 8.15268c-33.731242 0.10847-102.204753-0.683569-135.359874-33.812083l-6.840802-6.812149c-39.201837-39.447431-41.500183-98.676393-10.067286-141.240815l-194.041368-175.548178c-15.456017-15.456017-35.728736-57.422827 0-93.095281 35.70213-35.754319 77.665871-15.485693 93.066629 0 0 0 126.962623 138.861628 137.825019 151.036925 10.859325 12.144598 5.170766 24.865317 5.170766 24.865317s-22.323425 31.214932-34.414811 49.872874c-6.483668 10.203386-3.420913 11.488659 5.880941 5.552459 25.604144-16.413831 55.587016-35.180244 60.7322-37.724183l0.274246 0.357134c42.485627-31.843242 101.712543-29.544897 141.078109 9.902534l6.783497 6.785543c32.1707 32.1707 33.156144 100.069113 33.293267 134.347824C961.614649 329.138508 953.598069 322.079742 953.598069 322.079742zM563.49328-7.019625c-18.108426 0-32.662911 14.636349-32.662911 32.662911 0 18.000979 14.554484 32.609699 32.662911 32.609699 17.972327 0 32.55444-14.608719 32.55444-32.609699C596.04772 7.615701 581.46663-7.019625 563.49328-7.019625zM93.533768 305.118442l0-123.707486c0-85.107353 147.398048-154.565285 334.708108-161.129794-4.596691 40.569998 2.462075 84.146469 22.843264 104.664781l18.712177 18.711154c-4.241604-0.106424-8.453533-0.355087-12.722766-0.355087C256.278339 143.304056 93.533768 215.688643 93.533768 305.118442zM457.075575 187.730894c20.189831 0 39.8588 0.848321 59.172681 2.298346l82.645279 82.644255c0.220011 0.218988 0.38374 0.382717 0.547469 0.575098-1.040702 8.506744-1.559519 17.125029-1.559519 25.879414 0 8.507768 0.685615 16.906042 1.696642 25.194822-43.825135-8.289804-91.892897-12.885472-142.502551-12.885472-200.850447 0-363.541807 72.385611-363.541807 161.814386l0-123.759675C93.533768 260.063293 256.224104 187.730894 457.075575 187.730894z"  horiz-adv-x="1024" />

    
    <glyph glyph-name="yidongguanli" unicode="&#58903;" d="M781.670348 96.74874c0-6.5553-6.339382-11.910261-14.097066-11.910261L287.467689 84.83848c-7.758708 0-14.124695 5.353938-14.124695 11.910261L273.342993 704.925197c0 6.529717 6.365988 11.911284 14.124695 11.911284l480.104569 0c7.756661 0 14.097066-5.382591 14.097066-11.911284L781.669324 96.74874zM527.519973-19.51931c-25.270547 0-45.89733 17.402345-45.89733 38.766932 0 21.334911 20.62576 38.736233 45.89733 38.736233 25.269523 0 45.86663-17.402345 45.86663-38.736233C573.387627-2.116965 552.79052-19.51931 527.519973-19.51931M449.852056 782.674978c0 9.780761 9.315156 17.647939 20.897959 17.647939l113.511263 0c11.584849 0 20.926612-7.868201 20.926612-17.647939l0-0.491187c0-9.752108-9.341762-17.621333-20.926612-17.621333L470.751039 764.562459c-11.582803 0-20.897959 7.868201-20.897959 17.621333L449.852056 782.674978 449.852056 782.674978zM767.572258 848.023312 287.467689 848.023312c-46.742581 0-84.71645-32.100092-84.71645-71.548546l0-751.272525c0-39.476083 37.97387-71.548546 84.71645-71.548546l480.104569 0c46.713928 0 84.715427 32.072463 84.715427 71.548546L852.287685 776.474766C852.287685 815.922197 814.287209 848.023312 767.572258 848.023312M365.135606 394.881838l70.618361 0c3.879354 0 7.048533 2.677992 7.048533 5.955642l0 53.655014c0 6.583952-6.338359 11.938913-14.124695 11.938913l-56.495712 0c-7.78736 0-14.097066-5.354961-14.097066-11.938913l0-53.655014C358.060467 397.532201 361.228623 394.881838 365.135606 394.881838M619.284957 394.881838l70.619384 0c3.879354 0 7.048533 2.677992 7.048533 5.955642L696.952874 597.589586c0 6.583952-6.310729 11.938913-14.096043 11.938913l-56.494689 0c-7.78736 0-14.124695-5.354961-14.124695-11.938913l0-196.752106C612.236424 397.532201 615.405603 394.881838 619.284957 394.881838M492.196467 394.881838l70.619384 0c3.879354 0 7.049556 2.677992 7.049556 5.955642L569.865407 537.97893c0 6.583952-6.311753 11.911284-14.124695 11.911284l-56.469106 0c-7.786337 0-14.124695-5.327332-14.124695-11.911284l0-137.14145C485.147934 397.532201 488.317113 394.881838 492.196467 394.881838M711.212646 168.29831 343.827301 168.29831c-7.731078 0-13.986549-5.299703-13.986549-11.800767l0-0.24457c0-6.529717 6.255471-11.802814 13.986549-11.802814l367.386368 0c7.732102 0 13.987572 5.273097 13.987572 11.802814l0 0.24457C725.200218 162.998607 718.943724 168.29831 711.212646 168.29831M711.212646 311.396425 343.827301 311.396425c-7.731078 0-13.986549-5.273097-13.986549-11.802814l0-0.217964c0-6.529717 6.255471-11.82942 13.986549-11.82942l367.386368 0c7.732102 0 13.987572 5.299703 13.987572 11.82942l0 0.217964C725.200218 306.122305 718.943724 311.396425 711.212646 311.396425M711.212646 239.846856 343.827301 239.846856c-7.731078 0-13.986549-5.272074-13.986549-11.800767l0-0.245593c0-6.502088 6.255471-11.800767 13.986549-11.800767l367.386368 0c7.732102 0 13.987572 5.300726 13.987572 11.800767l0 0.245593C725.200218 234.574782 718.943724 239.846856 711.212646 239.846856"  horiz-adv-x="1024" />

    
    <glyph glyph-name="zhengtihudong" unicode="&#58905;" d="M526.75761 847.635479c-247.067049 0-447.239044-200.094224-447.239044-447.314769 0-246.906389 200.169949-447.096804 447.239044-447.096804 246.982114 0 447.130573 200.191438 447.130573 447.096804C973.89023 647.542278 773.740748 847.635479 526.75761 847.635479zM526.75761-20.846538c-232.746902 0-421.392376 188.473559-421.392376 421.167249 0 232.846162 188.734502 421.342234 421.392376 421.342234 232.618988 0 421.287999-188.495048 421.287999-421.342234C948.045609 167.625998 759.30906-20.846538 526.75761-20.846538zM735.282854 257.14994 373.311823 257.14994c-9.334599 0-16.922415 7.54279-16.922415 16.922415l62.576197 99.790774c0 0 8.04728 13.053294-1.684362 21.994943-9.686616 8.93244-18.585287 0-18.585287 0l-89.645716-145.483442c0-9.337669 7.566326-18.608823 16.945951-18.608823l409.327596 0C752.600265 233.777627 751.964792 257.662617 735.282854 257.14994zM736.96517 546.395624 328.40403 546.395624c-17.184381-1.989307-16.593933-25.810852 0.065492-25.27464l361.291556 0c9.359158 0 16.900925-7.564279 16.900925-16.879436l-62.486146-99.453083c0 0-8.003278-13.008268 1.660826-21.896706 9.708106-8.889461 18.541285 0 18.541285 0l89.469708 144.964626C753.845629 537.169495 746.280326 546.395624 736.96517 546.395624z"  horiz-adv-x="1024" />

    
    <glyph glyph-name="tianjia" unicode="&#58906;" d="M511.17368 831.418123c-246.737544 0-446.693622-199.956078-446.693622-446.665992 0-246.738567 199.956078-446.694645 446.693622-446.694645s446.693622 199.955054 446.693622 446.694645C957.867302 631.462045 757.911224 831.418123 511.17368 831.418123zM511.17368-8.390855c-216.768999 0-393.087727 176.346357-393.087727 393.142985 0 216.71374 176.319751 393.060097 393.087727 393.060097 216.768999 0 393.087727-176.346357 393.087727-393.060097C904.261407 167.955502 727.942679-8.390855 511.17368-8.390855zM744.332974 411.853371 538.261619 411.853371 538.261619 617.924727c0 14.988366-12.218276 27.183106-27.237341 27.183106-14.988366 0-27.183106-12.19474-27.183106-27.183106l0-206.071356L278.042016 411.853371c-15.019065 0-27.237341-12.230556-27.237341-27.26497 0-14.989389 12.218276-27.183106 27.237341-27.183106l205.853391 0 0-205.798133c0-15.019065 12.193717-27.237341 27.182083-27.237341 14.989389 0 27.183106 12.218276 27.183106 27.237341L538.260595 357.405295l206.071356 0c15.003715 0 27.210735 12.193717 27.210735 27.183106C771.543709 399.621792 759.33669 411.853371 744.332974 411.853371z"  horiz-adv-x="1024" />

    
    <glyph glyph-name="caidan" unicode="&#58907;" d="M64.81424 791.382938 959.181659 791.382938l0-128.28862L64.81424 663.094318 64.81424 791.382938zM64.81424 448.876957 959.181659 448.876957l0-128.27363L64.81424 320.603327 64.81424 448.876957zM64.81424 106.385167 959.181659 106.385167l0-128.28862L64.81424-21.903453 64.81424 106.385167z"  horiz-adv-x="1024" />

    
    <glyph glyph-name="huiyuankaiqia" unicode="&#58908;" d="M857.216191 33.382663 165.158606 33.382663c-55.7526 0-101.169607 45.359047-101.169607 101.126236L63.988999 634.970386c0 55.76699 45.417007 101.125637 101.169607 101.125637l692.057585 0c55.752 0 101.140027-45.358647 101.140027-101.125637l0-500.461487C958.356218 78.741909 912.968192 33.382663 857.216191 33.382663zM165.158606 672.20654c-20.583444 0-37.265534-16.69668-37.265534-37.236154l0-500.461487c0-20.539075 16.68209-37.250744 37.265534-37.250744l692.057585 0c20.553864 0 37.265534 16.711669 37.265534 37.250744L894.481725 634.970386c0 20.539474-16.711669 37.236154-37.265534 37.236154L165.158606 672.20654zM798.668886 480.566872 223.705712 480.566872c-17.643038 0-31.937746 14.309298-31.937746 31.937346 0 17.628448 14.294708 31.937746 31.937746 31.937746l574.963175 0c17.642039 0 31.937346-14.309298 31.937346-31.937746C830.606233 494.87617 816.310925 480.566872 798.668886 480.566872zM319.546931 161.147838l-95.84122 0c-17.643038 0-31.937746 14.280318-31.937746 31.937346 0 17.657029 14.294708 31.937147 31.937746 31.937147l95.84122 0c17.614058 0 31.938346-14.280318 31.938346-31.937147C351.485277 175.428156 337.160989 161.147838 319.546931 161.147838z"  horiz-adv-x="1024" />

    
    <glyph glyph-name="jifen" unicode="&#58909;" d="M511.179604 11.049005c-213.715501 0-386.984624 73.249137-387.603205 163.530726-20.153736 5.196477-39.768837 10.785687-58.445174 16.63772-0.807852-5.342378-1.142625-10.654776-1.142625-16.114075 0-123.528847 200.213655-223.678746 447.184209-223.678746 246.968955 0 447.18261 100.149898 447.18261 223.678746 0 6.958282-0.595596 13.901575-1.876728 20.656995-18.487465-6.113855-37.83235-11.951897-57.848579-17.338245l0.137906-3.31875C898.767819 84.516993 725.229878 11.049005 511.179604 11.049005L511.179604 11.049005zM511.179604 219.792876c-213.715501 0-386.984624 73.118226-387.603205 163.530726-20.153736 5.196477-39.768837 10.640786-58.445174 16.623729-0.807852-5.327788-1.142625-10.786687-1.142625-16.230995 0-123.412127 200.213655-223.547835 447.184209-223.547835 246.968955 0 447.18261 100.135908 447.18261 223.547835 0 7.016243-0.595596 13.886985-1.876728 20.787306-18.487465-6.186805-37.83235-11.965887-57.848579-17.410196l0.137906-3.37711C898.767819 293.187915 725.229878 219.792876 511.179604 219.792876L511.179604 219.792876zM123.576399 592.446217c0 90.542812 173.545936 163.92386 387.603205 163.92386 214.050274 0 387.588215-73.381048 387.588215-163.92386 0-90.528821-173.537941-163.92386-387.588215-163.92386C297.122135 428.522358 123.576399 501.917396 123.576399 592.446217L123.576399 592.446217zM63.995395 592.446217c0-123.528847 200.20666-223.548834 447.184209-223.548834 246.969954 0 447.175615 100.019986 447.175615 223.548834 0 123.513858-200.20586 223.548434-447.175615 223.548434C264.202055 815.994652 63.995395 715.960275 63.995395 592.446217L63.995395 592.446217z"  horiz-adv-x="1024" />

    
    <glyph glyph-name="jifenxiaofei" unicode="&#58910;" d="M632.529929 809.282802c-150.346065 0-325.082794-35.299467-325.082794-111.53358l0-203.323547 33.888424 2.814092c6.748824 0 13.526229 0 20.304633-1.417639l0 16.943912c40.622258-28.230859 148.977593-56.468514 270.889737-56.468514 121.896954 0 230.252289 28.237855 270.888538 56.468514l0-77.652152c0-19.765999-70.424052-59.298196-265.463216-63.530326l-12.188736 0c-20.333214 0-37.932282 1.403448-55.54514 2.814092 8.130488-14.11543 16.260975-28.231859 21.685297-43.763129 13.526829 0 27.067648-1.411043 40.623257-1.411043 121.896954 0 230.252289 28.230859 270.888538 56.47551l0-77.667142c0-19.758604-70.424052-59.289602-265.463216-63.528728l-12.188736 0c-6.792395 0-12.216717 0-18.966141 0 0-1.419038 0-1.419038 0-2.816091l-9.497561-39.545188c10.849644 0 23.02339-1.395054 35.227116-1.395054 121.896954 0 230.252289 28.228861 270.888538 56.467515l0-77.661146c0-19.758604-70.424052-59.311587-265.463216-63.536722l-12.188736 0c-17.614058 0-32.520951 1.411043-48.767735 1.411043l-13.540819-57.886553c279.020024-1.411043 394.138774 50.82534 394.138774 127.06545L957.596733 697.749022C957.596733 773.983335 782.874595 809.282802 632.529929 809.282802zM628.762483 765.511079c186.38623 0 282.393937-46.59281 282.393937-66.351414 0-19.772594-96.007707-66.358409-282.393937-66.358409-186.37224 0-282.394337 46.585815-282.394337 66.358409C346.368146 717.507226 442.390443 765.511079 628.762483 765.511079zM911.15642 562.195328c0-19.758604-73.420021-59.297596-276.751762-63.537322l-12.710382 0c-203.316551 4.239725-275.326129 43.778718-275.326129 63.537322l0 77.652152c42.368074-28.237855 155.318694-56.468514 282.394337-56.468514 127.073444 0 240.025663 28.230859 282.393937 56.468514L911.15642 562.195328zM311.083669 159.794755c0 0-66.365804 0-69.202481 0-8.464661 0-8.464661 7.053218-8.464661 7.053218l0 28.232858c0 0 0 7.061212 8.464661 7.061212 5.643174 0 55.065066 0 55.065066 0l14.137415 0c4.217541 0 7.054217 2.828083 7.054217 8.486246 0 4.225135 0 11.286348 0 11.286348 0 5.636179-5.658164 8.472256-7.054217 8.472256 0 0-66.365804 0-69.202481 0-8.464661 0-8.464661 7.061212-8.464661 7.061212l0 28.24485c0 0 0 7.047222 8.464661 7.047222 5.643174 0 55.065066 0 55.065066 0 4.24712 0 5.657564 2.836077 4.24712 5.650169-1.425034 1.411043-53.669012 64.949764-64.95536 77.667142-4.24712 7.047222 0 9.868309 0 9.868309l25.423763 19.773594c0 0 5.643174 2.828682 11.286748-4.225135 1.410044-2.836477 59.297197-69.194886 60.70824-70.605929 7.068208-7.061212 9.889695-9.889295 12.711382-9.889295 4.24712 0 8.464661 1.417039 14.122825 9.889295 1.411043 1.411043 60.70824 70.605929 62.133673 73.420021 5.643174 4.239526 8.464661 1.411043 8.464661 1.411043l25.423163-21.169647c0 0 4.21814-4.24712 1.396653-7.075203-1.396653-1.397053-66.351813-79.064194-66.351813-79.064194-1.410044-2.814092 0-5.650169 4.21814-5.650169l55.080056 0c5.657164 0 8.464861-5.650169 8.464861-8.464261l0-25.416767c0-4.23313-1.411043-8.472256-8.464861-8.472256 0 0-63.544717 0-67.762857 0-8.479251 0-8.479251-7.061212-8.479251-7.061212l0-12.697391c0 0 0-8.486246 8.479251-8.486246 8.464661 0 66.351813 0 66.351813 0 7.068208 0 9.875704-2.822087 9.875704-8.456267l0-24.007723c0-5.656165-2.807696-9.883299-9.875704-9.883299l-67.776847 0c-5.643174 0-7.054217-1.417039-7.054217-8.478252l0-38.130148c0 0 1.411043-9.86731-9.890294-9.86731l-36.709911 0c-5.643174 0-9.875305 4.227134-9.875305 9.86731 0 2.830081 0 36.719104 0 39.547187C318.137887 159.794755 311.083669 159.794755 311.083669 159.794755zM346.368146 526.902856c-155.319294 0-282.379347-127.081439-282.379347-282.399933 0-155.320293 127.060053-282.387741 282.379347-282.387741 155.318694 0 282.394337 127.067648 282.394337 282.387741C628.762483 399.821417 501.68704 526.902856 346.368146 526.902856zM346.368146 4.476461c-132.717617 0-240.026262 107.314841-240.026262 240.026662 0 132.723613 107.308445 240.032058 240.026262 240.032058 132.718217 0 240.040053-107.308445 240.040053-240.032058C586.408399 111.791301 479.086363 4.476461 346.368146 4.476461z"  horiz-adv-x="1024" />

    
    <glyph glyph-name="tianjiahuiyuan" unicode="&#58911;" d="M958.355219 193.479717l-191.645664 0 0 191.18038-63.898477 0 0-191.18038-191.645464 0 0-63.726593 191.645464 0 0-191.173984 63.898477 0 0 191.173984 191.645664 0L958.355219 193.479717zM479.22427 384.660096c57.499815 0 108.603167-12.749756 159.72031-38.235476L638.94458 416.520095c-12.795325 0-19.176998 6.375078-31.956334 6.375078 57.498816 44.60156 95.822832 108.336348 95.822832 184.805702 0 121.078509-102.204505 223.040778-223.586808 223.040778s-223.589406-101.96207-223.589406-223.040778c0-76.469354 38.324416-140.204142 95.824231-184.805702C172.591567 359.16798 63.9884 167.987201 63.9884-61.420861l574.95618 0 0 63.720597L127.870488 2.299737C153.414569 218.971433 287.576807 384.660096 479.22427 384.660096zM319.51855 607.700875c0 89.219309 70.264161 159.313585 159.70572 159.313585 89.426169 0 159.72031-70.094276 159.72031-159.313585s-70.294141-159.32118-159.72031-159.32118C389.782711 448.379894 319.51855 518.481565 319.51855 607.700875z"  horiz-adv-x="1024" />

    
    <glyph glyph-name="tongji" unicode="&#58912;" d="M291.831322 478.334985 112.710167 478.334985l-0.960749 0c-18.384935 0-33.116547-15.349993-33.116547-34.383088L78.632871-27.898589l0-1.433028c0-18.538231 14.760392-34.128661 33.116547-34.128661l179.208497 0 0.873408 0c18.457886 0 33.334799 15.59043 33.334799 34.128661L325.166121 443.22439l0 0.727507C325.195102 462.984992 310.289208 478.334985 291.831322 478.334985zM285.921329-21.31805 117.921633-21.31805 117.921633 436.178567l167.999696 0L285.921329-21.31805zM601.395238 830.899946l-179.368988 0-0.843428 0c-18.254623 0-33.131537-15.139136-33.131537-34.696476L388.051285-27.898589l0-1.433028c0-18.531436 14.876913-34.128661 33.131537-34.128661l179.252067 0 0.960349 0c18.545426 0 33.597221 15.597425 33.597221 34.128661L634.992459 795.257711l0 0.938963C634.992259 815.76081 619.940464 830.899946 601.395238 830.899946zM593.243765-24.68077l-163.428795 0L429.814969 792.120438l163.428795 0L593.243765-24.68077zM910.668751 647.091568l-179.048205 0-1.048289 0c-18.603387 0-33.51028-15.437533-33.51028-34.419663l0-640.577488 0-1.441023c0-18.538431 14.906893-34.120866 33.51028-34.120866l179.135146 0 0.961348 0c18.370545 0 33.014616 15.597425 33.014616 34.120866L943.683367 611.68977l0 0.982334C943.712147 631.654035 929.039295 647.091568 910.668751 647.091568zM904.205133-25.554178l-167.664923 0 0.02898 634.732451 167.635943 0L904.205133-25.554178z"  horiz-adv-x="1024" />

    
    <glyph glyph-name="yingxiaojianyi" unicode="&#58913;" d="M883.203372 88.916011c0-97.660586-1.660874-99.279489-89.300254-99.279489l-571.302657 0c-99.227923 0-99.053042-2.615227-99.053042 88.551762l-0.174881 579.421152c0 92.056386 0 90.387517 99.227923 90.387517l346.93238 0L569.532841 801.108744 219.816948 801.108744c-123.845233 0-149.250008-16.739051-149.250008-143.339416l0-577.956146c0-143.09758 25.404776-143.280456 149.250008-143.280456l576.884272 0c123.887804 0 139.614941 26.513024 139.614941 153.14177L936.316162 418.467575l-53.11279 0L883.203372 88.916011 883.203372 88.916011 883.203372 88.916011zM931.287771 734.813892l-75.906336 77.19746c-24.765209 25.185324-47.267952 25.185324-72.045953 0L345.702198 367.848095c-0.655955-0.66355-1.25355-1.334095-1.822364-2.041616-3.978702-3.227812-7.039627-7.715769-8.482649-13.109112l-19.253346-123.896598c-3.6875-13.547815 4.139194-27.575304 17.475552-31.307773 2.900034-0.808452 5.757097-1.07727 8.555599-0.852422 2.069597-0.151897 4.168174-0.064956 6.266751 0.313787l136.627567 16.243987c6.17981 1.13623 11.412862 4.466971 15.114752 9.080843 0.728506 0.57461 1.443022 1.22417 2.099576 1.9167l429.047906 437.348877C956.065771 686.701113 956.065771 709.627968 931.287771 734.813892L931.287771 734.813892zM458.921635 255.698532l-81.795343-13.45188c0 0-9.284705-2.222493-13.044556 2.033621-2.842473 3.271782 0.772476 11.558164 0.772476 11.558164l20.390175 73.072257 73.721817-73.138212L458.921635 255.698532 458.921635 255.698532zM496.394029 293.71056l-74.959577 74.348392 306.514383 309.146599 73.940668-73.342074L496.394029 293.71056 496.394029 293.71056zM887.109724 690.395608l-47.878338-48.592854-73.794767 73.232548 48.900645 49.300374c5.247442 5.320393 13.641751 5.320393 18.889193 0l53.883267-54.802244C892.314195 704.25661 892.314195 695.679625 887.109724 690.395608L887.109724 690.395608z"  horiz-adv-x="1024" />

    
    <glyph glyph-name="xiazai" unicode="&#58914;" d="M144.609147 477.305475c-6.557554 6.572544-8.511229 16.40128-4.981622 25.003048 3.597561 8.512628 11.924915 14.107835 21.198627 14.107835l187.604404-0.10393L348.430556 825.732242c0 12.686399 10.282029 22.900873 22.901473 22.900873l311.929312 0c6.054895 0 11.922916-2.383384 16.201016-6.690864 4.29209-4.278499 6.699458-10.155515 6.699458-16.21001l0-309.553922 188.039109-0.11792c6.189803 0 11.983875-2.531284 16.217005-6.706453 2.082588-2.072595 3.783435-4.588889 4.982622-7.431362 3.523611-8.585579 1.569936-18.429905-4.982622-24.988058L543.908822 110.403634c-8.949932-8.955928-23.464091-8.955928-32.412025 0L144.609147 477.305475zM885.540396 280.922622l0-237.489382L172.321158 43.43324 172.321158 280.922622 80.333326 280.922622l0-253.536502c0-40.38362 32.737804-73.115228 73.11283-73.115228l748.133366 0c40.370429 0 73.121224 32.731808 73.121224 73.115228L974.700745 280.922622 885.540396 280.922622z"  horiz-adv-x="1024" />

    
    <glyph glyph-name="xinfeng" unicode="&#58915;" d="M891.071038 743.996067c-20.642005 11.514193-44.033945 18.96754-69.479693 18.96754L202.404754 762.963607c-25.445148 0-48.837688-7.453347-69.479293-18.96754l379.072589-373.336878L891.071038 743.996067zM939.922916 695.885885 538.141124 300.189168c-6.885332-6.768411-16.506808-10.160111-26.143075-9.475576-9.636466-0.684536-19.258942 2.707165-26.144274 9.475576L84.072783 695.885885c-11.689075-20.335612-19.258343-43.364399-19.258343-68.431404l0-474.288233c0-74.530268 61.924415-135.508725 137.590314-135.508725l619.186591 0c75.665499 0 137.590314 60.978457 137.590314 135.508725L959.181659 627.454482C959.181659 652.521486 951.611791 675.550273 939.922916 695.885885z"  horiz-adv-x="1024" />

    
    <glyph glyph-name="xinzeng" unicode="&#58916;" d="M953.367 326.923h-372.653v-372.652h-149.062v372.652h-372.653v149.062h372.652v372.653h149.062v-372.653h372.653v-149.062z"  horiz-adv-x="1024" />

    
    <glyph glyph-name="lingdang" unicode="&#58917;" d="M901.813754 101.300614c-3.231809 74.966972-40.642444 141.491669-96.97705 184.332622L804.836705 489.078701c0 117.501934-84.079794 216.35671-195.14809 239.705879l0 4.643851c0 53.612451-43.961194 97.471714-97.704556 97.471714l0 0c-53.714382 0-97.676575-43.859064-97.676575-97.471714l0-4.643851c-111.096477-23.349169-195.14709-122.203746-195.14709-239.705879l0-203.445464c-56.334605-42.840754-93.74624-109.36545-96.978049-184.332622l96.978049 0 0-0.654556 585.676311 0 0 0.654556L901.813754 101.300614 901.813754 101.300614zM491.371034-63.467273l24.251557 0c63.58469 0 116.425863 47.9353 124.111652 109.36565L384.524676 45.898377c7.685789-61.43015 60.526763-109.36565 124.110653-109.36565L491.371034-63.467273z"  horiz-adv-x="1024" />

    
    <glyph glyph-name="zhiding" unicode="&#58918;" d="M130.438283 412.714995 499.346307 781.62302c5.600555 5.627161 16.745383 5.627161 22.37152 0L890.597199 412.714995c5.600555-5.572926 11.118222-5.572926 16.770965-5.572926 5.600555 0 11.199063 0 16.799618 5.572926 11.17041 11.199063 11.17041 22.397103 0 33.541931L549.687856 815.165973c-22.37152 22.342868-67.11149 22.342868-89.481987 0L91.269191 446.256926c-5.544273-5.571902-5.544273-22.342868 0-33.541931C96.868723 401.515932 119.184985 401.515932 130.438283 412.714995zM91.296821 245.005342 186.324104 245.005342 186.324104-56.818821 231.065098-56.818821 231.065098 245.005342 326.063729 245.005342 326.063729 278.54625 91.296821 278.54625ZM499.319701 284.118152c-50.28629 0-89.428775-16.771989-117.342522-50.258661-27.970028-33.651424-44.768623-78.337159-44.768623-128.540561 0-50.369178 16.798595-89.481987 44.768623-123.024941 27.91477-27.970028 67.056232-44.740994 111.824855-44.740994 50.28629 0 89.372493 16.770965 117.342522 50.312896 27.970028 33.596166 44.768623 78.338183 44.768623 128.651079 0 50.258661-16.798595 89.372493-44.768623 122.860189C588.828294 273.028583 549.687856 284.118152 499.319701 284.118152zM583.229786 10.264017c-22.37152-22.398126-50.395784-33.541931-83.910085-33.541931-33.488719 0-61.458747 11.144828-83.85585 39.114856-22.316262 22.398126-33.487695 55.884798-33.487695 100.68105 0 39.005362 11.171434 72.601528 33.487695 100.518345 22.397103 22.341844 50.367131 39.113833 83.85585 39.113833 33.514301 0 61.538565-11.089569 83.910085-33.541931 22.342868-22.398126 27.913746-55.830563 27.913746-100.570533C611.144556 66.204074 599.973122 38.234045 583.229786 10.264017zM901.742027 256.148124c-22.316262 16.879436-50.28629 27.970028-83.853803 27.970028L722.969411 284.118152l0-335.311859 44.687782 0L767.657192 77.348901l44.712341 0c33.541931 0 67.110467 11.143805 89.372493 27.970028 22.425755 22.342868 33.623795 44.685735 33.623795 78.174454C935.365822 211.461365 924.167782 239.377158 901.742027 256.148124zM868.227726 127.607562c-11.17041-11.145851-33.541931-16.717753-61.458747-16.717753L767.657192 110.889809 767.657192 245.059578l44.712341 0c50.339502 0 78.256318-22.398126 78.256318-67.084884C890.625852 155.57759 879.425765 138.806625 868.227726 127.607562z"  horiz-adv-x="1024" />

    
    <glyph glyph-name="shangchuan" unicode="&#58919;" d="M495.150472 824.1831c8.947933 8.955928 23.462093 8.955928 32.412025 0l366.508507-366.530093c6.551558-6.558154 8.506233-16.402279 4.982622-24.988058-1.199187-2.842473-2.900034-5.358967-4.982622-7.431362-4.23313-4.175169-10.027202-6.706453-16.217005-6.706453l-188.03791-0.11792 0-309.553922c0-6.053895-2.408367-11.929912-6.699458-16.20901-4.279099-4.30708-10.14712-6.691463-16.201016-6.691463L354.986903 85.954819c-12.619444 0-22.901473 10.215074-22.901473 22.900473L332.08543 418.275305l-187.604404-0.10393c-9.273712 0-17.601066 5.595206-21.198627 14.107835-3.529607 8.601568-1.575932 18.430504 4.981622 25.003048L495.150472 824.1831zM869.193871 263.190253l0-237.488383L155.976232 25.70187 155.976232 263.190253 63.9888 263.190253l0-253.535503c0-40.384419 32.737804-73.116227 73.11223-73.116227l748.131767 0c40.370629 0 73.120224 32.731808 73.120224 73.116227L958.353021 263.190253 869.193871 263.190253z"  horiz-adv-x="1024" />

    
    <glyph glyph-name="qidong" unicode="&#58920;" d="M511.999488 832.154903c-246.986207 0-447.184809-200.252837-447.184809-447.240067 0-246.985184 200.198601-447.184809 447.184809-447.184809 247.013837 0 447.184809 200.199625 447.184809 447.184809C959.184297 631.902066 759.013325 832.154903 511.999488 832.154903zM511.999488-8.057257c-217.013569 0-392.999722 175.959547-392.999722 392.972093 0 217.068827 175.986153 393.027351 392.999722 393.027351 217.041198 0 393.026328-175.958524 393.026328-393.027351C905.025816 167.90229 729.040686-8.057257 511.999488-8.057257zM410.735154 241.762485 254.561231 396.001335l-38.289048-38.426171 175.281095-173.126013c0.741897-0.726547 1.617847-1.209548 2.597151-1.490957 10.671037-8.67866 26.38595-8.074909 36.32737 1.817392l356.555695 356.537276-38.487569 38.208207L410.735154 241.762485z"  horiz-adv-x="1024" />

    
    <glyph glyph-name="cha" unicode="&#58921;" d="M958.356218 734.3602l-97.56565 97.563052L511.17061 482.308291 161.550453 831.923252 63.989399 734.3602 413.60456 384.739643 63.989399 35.119485l97.561054-97.557656 349.620158 349.606167 349.620158-349.606167 97.56565 97.557656L608.741257 384.739643 958.356218 734.3602z"  horiz-adv-x="1024" />

    
    <glyph glyph-name="tongjifenxi" unicode="&#58922;" d="M893.888128 12.555983 893.888128 439.059614 677.511431 439.059614 677.511431 12.555983l-61.96179 0L615.549641 621.399987l-216.846978 0L398.702664 12.555983l-62.515015 0L336.187649 812.480634 119.8873 812.480634 119.8873 12.555983 63.9888 12.555983l0-76.516922L958.356218-63.960938 958.356218 12.555983 893.888128 12.555983z"  horiz-adv-x="1024" />

    
    <glyph glyph-name="yingxiaoguanli" unicode="&#58923;" d="M869.118921 676.974707 599.998185 408.172155l-31.912363 31.879786-191.791565 191.433808L82.709707 338.244366l1.087263 128.684352L376.356814 759.15379l31.921757-31.882384 191.657656-191.433208L805.214449 740.878181l-91.153998 91.045071L939.936707 831.923252l0-225.618431L869.118921 676.974707zM81.493931 154.937049l180.73806 0 0-217.313062L81.493931-62.376013 81.493931 154.937049zM533.315596 245.168672l180.745055 0 0-307.612639-180.745055 0L533.315596 245.168672zM307.438741 335.401094l180.740058 0 0-397.845261-180.740058 0L307.438741 335.401094zM759.193851 470.786103l180.743056 0 0-533.23007-180.743056 0L759.193851 470.786103z"  horiz-adv-x="1024" />

    
    <glyph glyph-name="dianpuguanli" unicode="&#58924;" d="M846.632367 306.037203c-61.716956 0-111.802998 48.866668-111.802998 109.267117 0-60.392454-50.096834-109.267117-111.799-109.267117-61.706963 0-111.820985 48.866668-111.820985 109.267117 0-60.392454-50.078847-109.267117-111.802998-109.267117-61.715957 0-111.799 48.866668-111.799 109.267117 0-60.392454-50.077847-109.267117-111.815989-109.267117-61.706963 0-111.802998 48.866668-111.802998 109.267117l76.619452 200.04437 738.295036 0 79.452931-200.04437C958.452153 354.903871 908.352321 306.037203 846.632367 306.037203L846.632367 306.037203 846.632367 306.037203 846.632367 306.037203 846.632367 306.037203zM878.694429 616.415966l3.181843-1.04729-2.898035 0L878.694429 616.415966 878.694429 616.415966 878.694429 616.415966zM830.601236 673.508657 191.744381 673.508657c-21.085104 0-38.31842 15.584833-38.31842 34.88175 0 19.236358 17.150772 34.821391 38.31842 34.821391l638.856655 0c21.259586 0 38.488905-15.609417 38.488905-34.821391C869.089941 689.070106 851.86462 673.508657 830.601236 673.508657L830.601236 673.508657 830.601236 673.508657 830.601236 673.508657 830.601236 673.508657zM216.212792 238.1954l0-220.186114 590.903368 0L807.116159 238.1954c0 0 8.725084 0.297798 12.656419 0l62.103694 0 0-241.257827c0-20.25007-26.082316-46.078559-49.164466-46.078559L189.868653-49.140986c-23.24464 0-49.168464 25.828488-49.168464 46.078559L140.700189 238.1954l75.495614 0L216.212792 238.1954 216.212792 238.1954z"  horiz-adv-x="1024" />

    
    <glyph glyph-name="xiaofeiguanli" unicode="&#58925;" d="M698.878 657.955h-100.285l-63.598-131.758h-45.578l-63.597 131.758h-100.28l63.597-131.758h-103.76v-86.768h183.446v-99.9h-183.446v-86.742h183.446v-180.222h86.747v180.222h183.437v86.742h-183.437v99.9h183.437v86.768h-103.73l63.602 131.758zM512.196 830.9c-246.964 0-447.184-200.217-447.184-447.186 0-246.973 200.219-447.171 447.184-447.171 246.969 0 447.184 200.198 447.184 447.171-0 246.968-200.215 447.186-447.184 447.186zM512.196-16.384c-220.627 0-400.112 179.464-400.112 400.099 0 220.631 179.485 400.114 400.112 400.114s400.112-179.483 400.112-400.114c0-220.635-179.485-400.099-400.112-400.099z"  horiz-adv-x="1024" />

    
    <glyph glyph-name="chaxun" unicode="&#58926;" d="M939.222663-29.794327l-20.889773-20.904099c-15.669888-15.663748-41.784662-15.663748-57.44841 0L714.655048 100.765217c-67.893296-47.004547-151.456481-78.345346-240.238526-78.345346-219.348754 0-402.146033 182.790116-402.146033 407.357731 0 219.355917 182.797279 402.146033 407.364895 402.146033 224.567615 0 407.356708-182.789093 407.356708-407.357731 0-94.008071-31.332612-182.78807-88.782046-255.907391l146.237619-146.238642C954.893574 11.968845 954.893574-14.131603 939.222663-29.794327L939.222663-29.794327 939.222663-29.794327zM479.635383 727.478865c-167.126368 0-302.912961-135.785569-302.912961-297.701263 0-161.89932 135.785569-297.685913 302.912961-297.685913 167.126368 0 302.903751 135.785569 302.903751 297.685913C782.540158 591.692273 641.535727 727.478865 479.635383 727.478865L479.635383 727.478865 479.635383 727.478865zM479.635383 727.478865"  horiz-adv-x="1024" />

    
    <glyph glyph-name="dianpuxinxi" unicode="&#58928;" d="M958.222389 547.167197 894.347616 785.216871c-3.551896 14.22191-16.331967 24.194028-30.976502 24.194028L160.642189 809.410899c-14.658861 0-27.439956-9.972119-30.991852-24.194028L65.775564 547.167197c-0.64059-2.547009-0.960885-5.15337-0.960885-7.758708l0-102.800317c0-17.642822 14.294564-31.937386 31.937386-31.937386l31.952736 0L128.704802-8.861576c0-17.630542 14.294564-31.93841 31.937386-31.93841l702.727902 0c17.642822 0 31.93841 14.307867 31.93841 31.93841L895.308501 404.669762l31.937386 0c17.642822 0 31.93841 14.294564 31.93841 31.937386L959.184297 539.408489C959.184297 542.013827 958.862979 544.620188 958.222389 547.167197L958.222389 547.167197zM703.65246 535.47797l0-66.918086L543.940968 468.559884 543.940968 745.53408l102.829993 0L703.65246 535.47797 703.65246 535.47797zM320.346517 150.856056 320.346517 404.669762l383.305943 0L703.65246 150.856056 320.346517 150.856056 320.346517 150.856056zM377.235179 745.53408l102.829993 0 0-276.974195L320.346517 468.559884l0 66.918086L377.235179 745.53408 377.235179 745.53408zM128.704802 535.47797l56.874335 210.05611 125.801171 0-53.962006-198.366883c-0.626263-2.547009-0.946558-5.13802-0.946558-7.758708l0-70.848605L128.704802 468.559884 128.704802 535.47797 128.704802 535.47797zM256.470721 404.669762 256.470721 150.856056l-63.890122 0L192.580598 404.669762 256.470721 404.669762 256.470721 404.669762zM192.580598 23.090137l0 63.874773 638.852106 0 0-63.874773L192.580598 23.090137 192.580598 23.090137zM831.432705 150.856056l-63.904449 0L767.528256 404.669762l63.904449 0L831.432705 150.856056 831.432705 150.856056zM895.308501 468.559884l-127.780245 0 0 70.848605c0 2.605338-0.320295 5.211698-0.932232 7.744381l-53.976332 198.38121 125.801171 0 56.888661-210.05611L895.309524 468.559884 895.308501 468.559884 895.308501 468.559884zM895.308501 468.559884"  horiz-adv-x="1024" />

    
    <glyph glyph-name="huiyuanchongzhi" unicode="&#58929;" d="M594.856591 621.34871l-66.028832-134.475737c-7.55507-16.186657-13.392008-26.806529-17.497513-41.057091-3.435239 13.166881-9.273201 23.792892-17.467837 41.057091l-64.748676 134.475737-99.714026 0 100.67491-196.254779-66.072835 0 0-79.602989 108.608603 0 0-31.945573L363.999736 313.545368l0-78.446653 108.608603 0 0-84.924181 87.515193 0 0 84.924181 109.059881 0 0 78.446653L560.123532 313.545368l0 31.945573 109.059881 0 0 79.602989-76.568886 0 101.984742 196.254779L594.856591 621.34871zM828.173474 701.935096C747.12046 782.987087 635.324258 832.946942 511.999488 832.946942S276.877493 782.987087 195.825502 701.935096C114.773512 620.883105 64.81468 509.086903 64.81468 385.762133l63.584154 0c0 105.856933 42.971697 201.932082 112.844068 271.454482 69.5224 69.523423 165.597549 112.49512 271.454482 112.49512 106.20588 0 201.932082-42.971697 271.454482-112.49512 69.523423-69.5224 112.49512-165.597549 112.49512-271.454482 0-106.20588-42.970674-201.932082-112.49512-271.454482C714.629465 44.783205 618.555339 1.811508 512.697383 1.811508c-57.295937 0-111.097284 12.227486-159.309332 34.236755-42.272779 19.21462-80.353073 46.116317-112.844068 78.606289l2.794649 2.096754 44.019563 32.490995-151.97325 60.788481 5.589298-168.742169 46.116317 34.237779 1.746784 1.397836c38.779212-40.875966 85.594447-74.414827 137.64901-98.171903 56.597019-25.852808 119.482255-40.177048 185.512111-40.177048 123.325793 0 235.121995 49.958832 316.173986 131.010823s131.010823 192.848193 131.010823 316.173986S909.225465 620.883105 828.173474 701.935096z"  horiz-adv-x="1024" />

    
    <glyph glyph-name="lajitong" unicode="&#58930;" d="M758.009462-62.445982c20.407796 0 38.458917 3.143597 54.122665 9.403161 15.677051 6.28924 28.967752 14.614859 39.915082 24.921599 10.93198 10.336416 19.301602 22.360264 25.13854 36.013215 5.836939 13.654998 8.749268 27.862581 8.749268 42.621726L885.935016 555.111123l72.17174 0 0 6.638187c0 2.213411 0.174985 4.803399 0.524956 7.744381 0.3776 2.969635 0.552585 7.045463 0.552585 12.198833 0 11.062963-1.630127 23.058159-4.920056 35.984562-3.275603 12.926404-9.112542 24.921599-17.483186 35.984562l0 0c-8.383948 11.062963-19.680225 20.292162-33.903158 27.687596-14.207583 7.365758-32.256658 11.062963-54.122665 11.062963l-50.279127 0c-17.497513 0-33.903158 0.378623-49.201585 1.106194l0 68.64952c0 19.21462-4.92108 35.634592-14.761192 49.28959-9.840112 13.654998-27.51261 20.467147-53.045123 20.467147L339.254146 831.924659c-18.952654 0-34.979676-6.812149-48.109718-20.467147-13.131065-13.653975-19.681248-30.073946-19.681248-49.28959l0-67.543326-97.298 0c-18.952654 0-35.358299-3.318582-49.202609-9.956769-13.857613-6.638187-25.15389-14.935154-33.902134-24.921599-8.748245-9.956769-15.299451-20.845771-19.680225-32.664957-4.381797-11.82021-6.565533-22.50455-6.565533-32.112372 0-19.185968 0.378623-30.627555 1.107217-34.32476 0-2.940982 0.363274-4.803399 1.076518-5.531993l67.805292 0 0-493.533416c0-19.185968 3.464915-36.363186 10.379395-51.501978 6.91448-15.110139 16.405645-28.03552 28.429493-38.749536s26.420743-18.98233 43.175335-24.921599c16.769942-5.880941 34.630728-8.850575 53.583382-8.850575M339.254146 762.166899l342.215082 0 0-69.755714L339.254146 692.411185 339.254146 762.166899 339.254146 762.166899zM340.346013 113.632269c0-30.277584-11.6749-45.417399-34.994002-45.417399-12.388145 0-20.947078 3.697205-25.678846 11.063987-4.745071 7.395434-7.103792 18.835997-7.103792 34.353412l0 437.054077 67.776639 0L340.346013 113.632269 340.346013 113.632269zM543.703561 113.632269c0-15.517415-2.183735-26.784016-6.550183-33.800827-4.367471-6.987135-12.751419-10.509355-25.15389-10.509355-24.047696 0-36.071543 14.760169-36.071543 44.310182l0 437.054077 67.775616 0L543.703561 113.632269 543.703561 113.632269zM750.353085 115.844657c0-15.517415-2.183735-26.784016-6.550183-33.771151-4.367471-7.016811-13.115716-10.539031-26.231431-10.539031-24.063045 0-36.101219 14.760169-36.101219 44.310182L681.470251 550.686347l68.882833 0L750.353085 115.844657 750.353085 115.844657zM750.353085 115.844657"  horiz-adv-x="1024" />

    
    <glyph glyph-name="qingling" unicode="&#58931;" d="M535.917224 405.412682l-6.114255-7.826246c50.187029-46.390563 117.305683-77.280084 201.421452-92.64912-8.432043-12.765745-15.520485-24.069185-21.331841-33.927717-81.764212 23.782659-147.739832 59.156308-197.894116 106.135272-46.122457-42.343387-112.804159-80.034824-200.11162-113.089661-5.509481 9.272177-11.858072 19.282159-19.114336 30.014594 91.036389 28.117384 160.337755 65.237817 207.90512 111.342878L535.917224 405.412682zM317.565171 502.847805l176.159092 0 0 26.521027L331.035974 529.368832l0 27.848255 354.938871 0 0-27.848255L526.780123 529.368832l0-26.521027 181.365674 0 0-80.907705-32.181957 0 0 53.076846L526.780123 475.016947l0-60.904115-33.05586 0 0 60.904115L349.747127 475.016947l0-53.076846-32.181957 0L317.565171 502.847805zM364.09081 407.159466l96.142687 0 0-25.227568-96.142687 0L364.09081 407.159466zM369.298416 453.702502l90.935082 0 0-25.228591-90.935082 0L369.298416 453.702502zM404.099013 208.376097l13.504572 26.538423c30.43415-9.573029 61.60815-19.585057 93.522-30.015617l80.017428 50.457182L375.411647 255.356085l0 27.830859 140.483568 0c-11.588943 14.797008-24.623817 30.300097-39.135322 46.542013l24.355711 18.274202c14.20963-15.083533 27.982308-30.602995 41.318034-46.559409l-25.664519-18.257829 120.0594 0L636.828518 250.567012l-91.775216-57.425897c17.704221-6.080485 35.675524-12.446473 53.915957-19.130709l-13.470803-29.577642C515.325233 170.819736 454.85807 192.133158 404.099013 208.376097zM560.271912 453.702502l90.028433 0 0-25.228591-90.028433 0L560.271912 453.702502zM560.271912 407.159466l95.235015 0 0-25.227568-95.235015 0L560.271912 407.159466zM163.509493 486.068653l2.990101 0C210.304262 636.496711 349.276407 746.747721 513.611196 746.747721c163.898861 0 302.501592-109.646236 346.709443-259.401981l0.436952 0.167822c3.66139-7.893784 11.453866-13.369495 20.591991-13.369495 12.597923 0 22.809495 10.446933 22.809495 23.346731 0 2.351558-0.436952 4.602831-1.075495 6.751774l0 0c-0.033769 0.134053-0.066515 0.23536-0.101307 0.369414-0.234337 0.738827-0.436952 1.477654-0.738827 2.183735C850.546018 672.272519 696.153672 792.433226 513.611196 792.433226c-185.834452 0-342.543563-124.561947-391.353223-294.741861L64.81468 513.884163l45.651736-136.285966 116.331495 90.633207L163.509493 486.068653 163.509493 486.068653 163.509493 486.068653zM959.184297 252.735397 913.497769 389.02034 797.200042 298.420903l62.348-17.602913C814.601364 132.271792 676.669922 23.700027 513.611196 23.700027c-162.621774 0-300.250318 108.033505-345.532641 256.043491l-0.101307-0.033769c-2.720971 9.809413-11.42112 16.998139-21.869077 16.998139-12.597923 0-22.842241-10.447956-22.842241-23.347754 0-1.410116 0.167822-2.788509 0.436952-4.164856l-0.436952-0.100284c50.019207-168.300101 205.821669-291.080471 390.345266-291.080471 184.28926 0 339.9239 122.411981 390.178467 290.341644L959.184297 252.735397 959.184297 252.735397 959.184297 252.735397zM959.184297 252.735397"  horiz-adv-x="1024" />

    
    <glyph glyph-name="xiazai1" unicode="&#58932;" d="M512.016 830.9c-79.901 0-154.912-20.961-219.831-57.611-135.747-76.659-227.37-222.182-227.37-389.003v0c0-246.739 200.212-446.715 447.202-446.68 246.989 0 447.185 199.943 447.167 446.68 0 246.67-200.229 446.614-447.168 446.614v0zM512.016-6.596c-216.135 0-391.304 175.017-391.32 390.816 0 215.866 175.186 390.817 391.32 390.817 216.101 0 391.269-174.984 391.269-390.817 0.001-215.833-175.184-390.816-391.269-390.816v0zM657.304 367.49l-114.753-124.326v362.968c0 17.435-12.883 30.267-30.284 30.267-17.418 0-30.284-12.798-30.284-30.267v-362.968l-112.485 124.897c-20.929 20.895-56.621-14.713-35.692-35.642l178.461-180.024 178.461 180.024c21.164 21.197-13.336 55.159-33.424 35.071v0zM657.304 367.49z"  horiz-adv-x="1024" />

    
    <glyph glyph-name="xiaofeixinxi" unicode="&#58933;" d="M367.13003 346.522434l0-75.556836 103.055121 0 0-30.3134L367.13003 240.652198l0-74.459852 103.055121 0 0-80.601736 83.060741 0 0 80.601736 103.527888 0 0 74.459852-103.527888 0 0 30.3134 103.527888 0L656.773779 346.522434l-72.689532 0 96.788393 186.254008-94.634334 0-62.674435-127.626749c-7.176446-15.372106-12.715603-25.445532-16.60826-38.969547-3.275603 12.497639-8.81476 22.571065-16.587793 38.969547l-61.451584 127.626749-94.626147 0 95.550193-186.254008L367.13003 346.522434zM411.200758 629.24454l201.596438 0c33.400714 0 60.483536 27.089985 60.483536 60.497862l0 80.659041c0 33.407877-27.083845 60.497862-60.483536 60.497862L411.200758 830.899306c-33.401738 0-60.483536-27.089985-60.483536-60.497862l0-80.659041C350.716198 656.334525 377.79902 629.24454 411.200758 629.24454zM411.200758 750.240265c0 11.135618 9.024537 20.161179 20.160155 20.161179l161.276127 0c11.135618 0 20.160155-9.025561 20.160155-20.161179l0-13.305027 0-27.031657c0-11.135618-9.024537-20.161179-20.160155-20.161179L431.360913 689.742403c-11.135618 0-20.160155 9.025561-20.160155 20.161179L411.200758 750.240265zM829.373813 749.207749 721.108017 749.207749l-7.832386 0 0-60.483536 7.832386 0 108.266819 0c3.573385 0 5.064342-2.00875 5.180999-2.387373l0.008186-686.935218c-0.12382-0.363274-1.614777-2.372024-5.188162-2.372024L211.596697-2.970402c-11.135618 0-20.160155 9.023514-20.160155 20.160155l0.094144 651.576919c0.036839 11.121292 9.061376 20.10285 20.183691 20.10285l99.000781-0.159636 0 60.497862-121.425514-0.683569c-33.305547-0.130983-60.22157-27.177989-60.235896-60.483536l-0.094144-688.637999c0-34.718733 29.39754-62.87091 65.665559-62.87091l634.749672 0c36.266995 0 65.665559 28.1532 65.665559 62.87091l0 686.935218C895.039371 721.068875 865.641831 749.207749 829.373813 749.207749z"  horiz-adv-x="1024" />

    
    <glyph glyph-name="qingchu" unicode="&#58934;" d="M943.097924 507.70851c-3.054569 5.03876-7.489578 9.338692-13.134135 12.19474l-76.219939 38.294165-70.353324 35.367509L879.378693 785.278269c6.450922 12.867052-4.13211 31.242562-23.648606 41.017182-19.516496 9.774621-40.579207 7.255241-47.029106-5.644557l-95.925746-191.58748-63.569828 31.956829-98.860589 49.682539c-0.437975 0.234337-0.908696 0.404206-1.378393 0.604774-0.536212 0.23536-1.007957 0.469698-1.547239 0.672312-0.469698 0.200568-0.940418 0.369414-1.476631 0.503467-0.536212 0.167822-1.042749 0.369414-1.578961 0.538259-0.503467 0.134053-1.00591 0.201591-1.512447 0.336668-0.538259 0.101307-1.075495 0.26913-1.612731 0.336668-0.50449 0.101307-1.00591 0.134053-1.546216 0.201591-0.535189 0.067538-1.075495 0.134053-1.611707 0.201591-0.470721 0.033769-1.00591 0-1.512447 0.033769-0.535189 0-1.075495 0.033769-1.578961 0-0.535189 0-1.042749-0.033769-1.546216-0.101307-0.535189-0.033769-1.075495-0.033769-1.578961-0.101307-0.502443-0.066515-1.00591-0.167822-1.512447-0.268106-0.537236-0.101307-1.043772-0.168846-1.545192-0.26913-0.50449-0.13303-1.007957-0.26913-1.478677-0.403183-0.502443-0.134053-1.00591-0.268106-1.545192-0.435928-0.470721-0.168846-0.941442-0.336668-1.411139-0.537236-0.469698-0.168846-0.974188-0.336668-1.477654-0.537236-0.436952-0.23536-0.873903-0.469698-1.343601-0.672312-0.469698-0.23536-0.939395-0.470721-1.411139-0.706081-0.469698-0.268106-0.873903-0.537236-1.307785-0.806365-0.438998-0.268106-0.908696-0.537236-1.379417-0.839111-0.404206-0.301875-0.806365-0.638543-1.210571-0.940418-0.405229-0.300852-0.873903-0.638543-1.277086-0.974188-0.403183-0.334621-0.738827-0.705058-1.140986-1.075495-0.404206-0.336668-0.806365-0.705058-1.14201-1.075495-0.403183-0.369414-0.73985-0.806365-1.074472-1.209548-0.367367-0.405229-0.740874-0.772596-1.042749-1.174756-0.369414-0.435928-0.671289-0.907673-0.974188-1.37737-0.335644-0.404206-0.63752-0.840134-0.907673-1.277086-0.302899-0.469698-0.572028-0.974188-0.873903-1.477654-0.234337-0.435928-0.503467-0.806365-0.704035-1.242294-23.514553-45.719274-53.145407-88.8854-88.549755-128.993886-0.50449-0.572028-1.007957-1.108241-1.478677-1.713015-22.64065-25.461905-47.565319-49.750077-74.742285-72.693626C271.488763 433.436946 188.61631 385.331321 96.001983 350.261595c-13.638625-5.175883-21.766746-18.611893-20.760836-32.516578-0.806365-11.621688 4.76963-23.246447 15.385409-29.761837L646.545834-51.770851c4.02978-2.451842 8.365528-3.898797 12.764722-4.467755 5.544273-3.897773 12.060687-5.877871 18.544355-5.877871 8.163937 0 16.358573 3.090385 22.64065 9.237385 78.169337 76.725452 139.541103 162.821319 182.439122 255.939113 43.401486 94.123704 65.571415 190.435237 65.907059 286.137903C948.87551 496.085798 946.726567 502.467135 943.097924 507.70851zM824.255235 230.099864c-36.716226-79.648015-88.246857-153.888879-153.315828-221.00651l-122.813117 75.04723 77.127611 75.447343c12.765745 12.462846 13.000082 32.921807 0.503467 45.685505-12.498662 12.767791-32.91976 13.001105-45.686529 0.505513l-88.818885-86.87051-144.446833 88.279602 87.206154 61.138452c14.646582 10.211573 18.174941 30.368658 7.928576 45.014216-10.211573 14.57802-30.367635 18.140149-45.013193 7.892761l-110.283756-77.295434-112.500237 68.730361c77.464279 34.869159 147.872862 78.840626 209.884195 131.143852 22.909779 19.382443 44.408419 39.606043 64.396659 60.702524L844.410274 278.373311C838.363558 262.247029 831.644529 246.122793 824.255235 230.099864zM864.464005 341.355761 491.656161 554.263825c21.433148 27.076682 40.647769 55.327096 57.579393 84.653005l334.579171-168.164001C882.267487 427.688012 875.751073 384.453325 864.464005 341.355761z"  horiz-adv-x="1024" />

    
    <glyph glyph-name="shouye" unicode="&#58935;" d="M959.184297 359.676012 517.220397 803.166685 64.81468 359.348554 199.780581 359.402789 199.780581-35.902442 415.613254-35.902442 415.613254 162.64966 608.359117 162.64966 608.359117-35.902442 824.219419-35.902442 824.219419 359.620753Z"  horiz-adv-x="1024" />

    
    <glyph glyph-name="jifenguanli" unicode="&#58936;" d="M174.893774 766.217145c-34.703383-19.862373-52.055586-41.421388-52.055586-64.676022l0-53.634548c0-23.254633 17.352203-44.813648 52.055586-64.676022 34.673707-19.920702 81.867566-35.657104 141.462872-47.25935 59.653635-11.601222 124.490316-17.373693 194.565301-17.373693 70.048379 0 134.912689 5.837962 194.47832 17.432021 59.597353 11.601222 106.789165 27.38879 141.493571 47.251164 34.674731 19.869536 52.054563 41.421388 52.054563 64.682161l0 53.576219c0 23.254633-17.379832 44.813648-52.054563 64.676022-34.704406 19.862373-81.896218 35.598776-141.493571 47.251164-59.565631 11.602246-124.429941 17.432021-194.47832 17.432021-70.074985 0-134.911666-5.829775-194.565301-17.432021C256.76134 801.815921 209.567481 786.079518 174.893774 766.217145M122.867864 345.779513l0-85.906555c0-23.254633 17.380856-44.813648 52.084239-64.676022 34.673707-19.862373 81.866542-35.598776 141.462872-47.252187 59.653635-11.601222 124.489292-17.430998 194.566324-17.430998 70.047356 0 134.884037 5.829775 194.479343 17.430998 59.595306 11.602246 106.787118 27.389814 141.492548 47.252187 34.674731 19.862373 52.054563 41.422412 52.054563 64.676022l0 85.906555c-40.060391-28.297486-94.851275-49.683563-164.230412-64.166415-69.435419-14.491039-144.024208-21.74014-223.854371-21.74014-79.857792 0-154.446581 7.249101-223.883023 21.74014C217.661833 296.096974 162.956907 317.482027 122.867864 345.779513M122.867864 151.737122l0-85.899392c0-23.260773 17.380856-44.820811 52.084239-64.683185 34.673707-19.862373 81.866542-35.591613 141.462872-47.252187 59.595306-11.601222 124.431987-17.372669 194.506972-17.372669 70.048379 0 134.912689 5.829775 194.47832 17.430998 59.597353 11.653411 106.789165 27.38879 141.493571 47.244001 34.674731 19.87056 52.054563 41.428551 52.054563 64.683185l0 85.906555c-40.060391-28.297486-94.851275-49.689702-164.230412-64.173578-69.37709-14.483876-143.966902-21.732977-223.796042-21.732977-79.857792 0-154.446581 7.249101-223.883023 21.732977C217.661833 102.105748 162.956907 123.439636 122.867864 151.737122M122.867864 539.829068l0-85.906555c0-23.255657 17.380856-44.820811 52.084239-64.683185 34.673707-19.862373 81.866542-35.591613 141.462872-47.251164 59.595306-11.601222 124.431987-17.423835 194.506972-17.423835 70.048379 0 134.912689 5.822612 194.47832 17.423835 59.597353 11.602246 106.789165 27.38879 141.493571 47.251164 34.674731 19.863397 52.054563 41.428551 52.054563 64.683185l0 85.906555c-40.060391-28.29851-94.851275-49.689702-164.230412-64.181765-69.37709-14.483876-143.966902-21.724791-223.796042-21.724791-79.857792 0-154.446581 7.241938-223.883023 21.724791C217.661833 490.081037 162.956907 511.530558 122.867864 539.829068"  horiz-adv-x="1024" />

    
    <glyph glyph-name="xiaofeiguanli1" unicode="&#58937;" d="M512.196986 830.90033c-246.970858 0-447.184809-200.213951-447.184809-447.184809 0-246.979044 200.213951-447.184809 447.184809-447.184809s447.184809 200.205764 447.184809 447.184809C959.381795 630.685355 759.167844 830.90033 512.196986 830.90033zM739.006665 457.882708 555.561633 457.882708l0-99.903338 183.445032 0 0-86.74362L555.561633 271.23575 555.561633 91.013109l-86.74362 0L468.818013 271.23575 285.372981 271.23575l0 86.74362 183.445032 0 0 99.903338L285.372981 457.882708l0 86.765109 103.761202 0-63.59848 131.760906 100.281961 0 63.59848-131.760906 45.577035 0 63.59848 131.760906 100.281961 0-63.59848-131.760906 103.731526 0L739.006665 457.882708z"  horiz-adv-x="1024" />

    
    </font>
</defs>
</svg>
